<svg xmlns="http://www.w3.org/2000/svg" xmlns:xlink="http://www.w3.org/1999/xlink" width="370" height="148" viewBox="0 0 370 148">
  <defs>
    <linearGradient id="linear-gradient" x1="0.5" x2="0.854" y2="0.947" gradientUnits="objectBoundingBox">
      <stop offset="0" stop-color="#e89494"/>
      <stop offset="1" stop-color="#e61616"/>
    </linearGradient>
    <clipPath id="clip-path">
      <path id="Rectangle_8" data-name="Rectangle 8" d="M20,0H350a20,20,0,0,1,20,20V148a0,0,0,0,1,0,0H0a0,0,0,0,1,0,0V20A20,20,0,0,1,20,0Z" transform="translate(0.412 0.072)" opacity="0.1" fill="url(#linear-gradient)"/>
    </clipPath>
    <linearGradient id="linear-gradient-2" x1="0.5" y1="1" x2="0.5" gradientUnits="objectBoundingBox">
      <stop offset="0" stop-color="gray" stop-opacity="0.251"/>
      <stop offset="0.54" stop-color="gray" stop-opacity="0.122"/>
      <stop offset="1" stop-color="gray" stop-opacity="0.102"/>
    </linearGradient>
  </defs>
  <g id="Mask_Group_12" data-name="Mask Group 12" transform="translate(-0.412 -0.072)" clip-path="url(#clip-path)">
    <g id="Group_39" data-name="Group 39" transform="translate(65.646 14.531)">
      <path id="Path_516" data-name="Path 516" d="M249.28,97.432c-16.263-.565-31.755-5.815-46.546-11.559s-29.441-12.11-45.315-15.153c-10.21-1.958-21.887-2.234-30.112,3.239-7.918,5.277-10.476,14.361-11.851,22.8-1.035,6.348-1.643,13.027,1.194,18.97,1.968,4.126,5.463,7.594,7.878,11.559,8.411,13.75,2.468,30.707-6.647,44.134-4.272,6.3-9.235,12.313-12.532,19.012s-4.825,14.386-1.94,21.226c2.862,6.785,9.68,11.871,17.062,15.452,15,7.275,32.667,9.355,49.908,10.534,38.153,2.611,76.507,1.48,114.761.349,14.158-.42,28.375-.844,42.3-3.033,7.735-1.216,15.718-3.144,21.334-7.8,7.127-5.913,8.893-15.927,4.119-23.34-8.014-12.436-30.155-15.525-35.763-28.873-3.081-7.345.085-15.527,4.563-22.342,9.609-14.615,25.714-27.438,26.564-44.144.583-11.476-7.162-22.965-19.133-28.4-12.547-5.712-29.951-4.988-39.2,4.433C280.389,94.205,263.639,97.93,249.28,97.432Z" transform="translate(-101.886 -62.902)" fill="#ff9599" opacity="0.1"/>
      <path id="Path_517" data-name="Path 517" d="M153.717,471.562l-86.011-.42L59.16,451.1,89.38,448.9l-5.267-21.978,59.771-7.747-57.236-19.9,5.056-1.2,92.034,15.014-5.068,34.3-7.245,18.849Z" transform="translate(-47.637 -298.049)" fill="#050510"/>
      <path id="Path_518" data-name="Path 518" d="M187,698.6s5.277-.844,8.443,2.885c0,0-2.322,1.829-7.318-.7Z" transform="translate(-165.612 -533.898)" fill="#6c63ff"/>
      <path id="Path_554" data-name="Path 554" d="M561.3,670.36s-5.7,6.953-1.173,17.464l-45.483,19.726-4.365.915-2.01-8.8,1.344-11.1V682.5Z" transform="translate(-406.15 -512.819)" fill="#d5d6db"/>
      <path id="Path_555" data-name="Path 555" d="M59.16,574.866l62.953-11.476,83.415,13.288-51.811,18.653Z" transform="translate(-47.637 -421.819)" fill="#6c63ff"/>
      <path id="Path_556" data-name="Path 556" d="M59.16,574.866l62.953-11.476,83.415,13.288-51.811,18.653Z" transform="translate(-47.637 -421.819)" fill="#ffb8b8"/>
      <path id="Path_557" data-name="Path 557" d="M140.679,652.47s-5.888,11.155.9,21.457l93.354,20.229s-5.795-8.885.3-21.219Z" transform="translate(-129.156 -499.425)" fill="#ffe8e8"/>
      <path id="Path_558" data-name="Path 558" d="M140.679,652.47s-5.888,11.155.9,21.457l93.354,20.229s-5.795-8.885.3-21.219Z" transform="translate(-129.156 -499.425)" fill="#ff9598" opacity="0.1"/>
      <path id="Path_559" data-name="Path 559" d="M154.354,667.86s-3.365,8.162,0,13.444" transform="translate(-140.05 -510.947)" opacity="0.1"/>
      <path id="Path_560" data-name="Path 560" d="M244.663,752.1l52.117-22.239s2.915.628,1.03,2.764-52.142,21.611-52.142,21.611L151.31,731.87Z" transform="translate(-138.89 -557.367)" fill="#6c63ff"/>
      <path id="Path_561" data-name="Path 561" d="M244.663,752.1l52.117-22.239s2.915.628,1.03,2.764-52.142,21.611-52.142,21.611L151.31,731.87Z" transform="translate(-138.89 -557.367)" opacity="0.1"/>
      <path id="Path_562" data-name="Path 562" d="M499.155,742.86s-5.026,6.031,0,15.077" transform="translate(-397.653 -567.101)" opacity="0.1"/>
      <rect id="Rectangle_81" data-name="Rectangle 81" width="23.764" height="0.251" transform="translate(103.291 183.178) rotate(-18.45)" opacity="0.1"/>
      <rect id="Rectangle_82" data-name="Rectangle 82" width="28.956" height="0.251" transform="translate(103.282 185.201) rotate(-20.82)" opacity="0.1"/>
      <rect id="Rectangle_83" data-name="Rectangle 83" width="33.562" height="0.251" transform="translate(103.433 187.585) rotate(-22.26)" opacity="0.1"/>
      <rect id="Rectangle_84" data-name="Rectangle 84" width="38.633" height="0.251" transform="translate(103.796 189.688) rotate(-24.31)" opacity="0.1"/>
      <rect id="Rectangle_85" data-name="Rectangle 85" width="42.254" height="0.251" transform="matrix(0.916, -0.401, 0.401, 0.916, 104.075, 190.712)" opacity="0.1"/>
      <rect id="Rectangle_86" data-name="Rectangle 86" width="50.564" height="0.251" transform="translate(104.659 192.43) rotate(-23.36)" opacity="0.1"/>
      <path id="Path_563" data-name="Path 563" d="M152.23,586.238l44.227-9.3,26.943,5.151-36.241,11.685Z" transform="translate(-117.32 -431.964)" fill="#fff" opacity="0.3"/>
      <path id="Path_564" data-name="Path 564" d="M575.818,659.69s2.287.922.945,2.347S524,678.343,524,678.343Z" transform="translate(-417.928 -504.83)" fill="#6c63ff"/>
      <path id="Path_565" data-name="Path 565" d="M660.6,574.18s-5.694,6.951-1.171,17.465l-45.483,19.726-4.365.92-2.01-8.8,1.365-11.1v-6.074Z" transform="translate(-480.497 -440.808)" fill="#d5d6db"/>
      <path id="Path_566" data-name="Path 566" d="M158.46,478.684l62.95-11.474L304.828,480.5l-51.811,18.653Z" transform="translate(-121.984 -349.807)" fill="#3a3768"/>
      <path id="Path_567" data-name="Path 567" d="M239.934,556.29s-5.89,11.155.895,21.457l93.354,20.229s-5.792-8.893.309-21.221Z" transform="translate(-203.468 -427.414)" fill="#3a3768"/>
      <path id="Path_568" data-name="Path 568" d="M239.934,556.29s-5.89,11.155.895,21.457l93.354,20.229s-5.792-8.893.309-21.221l-29.521-6.39Z" transform="translate(-203.468 -427.414)" opacity="0.1"/>
      <path id="Path_569" data-name="Path 569" d="M253.648,571.68s-3.362,8.159,0,13.444" transform="translate(-214.393 -438.936)" opacity="0.1"/>
      <path id="Path_570" data-name="Path 570" d="M343.954,655.919l52.12-22.239s2.912.628,1.028,2.764-52.142,21.611-52.142,21.611L250.6,635.69Z" transform="translate(-213.23 -485.357)" fill="#3a3768"/>
      <path id="Path_571" data-name="Path 571" d="M343.954,655.919l52.12-22.239s2.912.628,1.028,2.764-52.142,21.611-52.142,21.611L250.6,635.69Z" transform="translate(-213.23 -485.357)" opacity="0.1"/>
      <path id="Path_572" data-name="Path 572" d="M598.445,646.68s-5.026,6.031,0,15.077" transform="translate(-471.993 -495.09)" opacity="0.1"/>
      <rect id="Rectangle_87" data-name="Rectangle 87" width="23.764" height="0.251" transform="translate(128.243 159.011) rotate(-18.45)" opacity="0.1"/>
      <rect id="Rectangle_88" data-name="Rectangle 88" width="28.956" height="0.251" transform="translate(128.238 161.033) rotate(-20.82)" opacity="0.1"/>
      <rect id="Rectangle_89" data-name="Rectangle 89" width="33.562" height="0.251" transform="translate(128.385 163.415) rotate(-22.26)" opacity="0.1"/>
      <rect id="Rectangle_90" data-name="Rectangle 90" width="38.633" height="0.251" transform="translate(128.75 165.518) rotate(-24.31)" opacity="0.1"/>
      <rect id="Rectangle_91" data-name="Rectangle 91" width="42.254" height="0.251" transform="matrix(0.916, -0.401, 0.401, 0.916, 129.026, 166.538)" opacity="0.1"/>
      <rect id="Rectangle_92" data-name="Rectangle 92" width="50.564" height="0.251" transform="translate(129.612 168.257) rotate(-23.36)" opacity="0.1"/>
      <path id="Path_573" data-name="Path 573" d="M251.53,490.058l44.227-9.3,26.943,5.151L286.459,497.6Z" transform="translate(-191.667 -359.953)" fill="#fff" opacity="0.45"/>
      <path id="Path_574" data-name="Path 574" d="M675.141,563.51s2.284.922.945,2.345-52.755,16.306-52.755,16.306Z" transform="translate(-492.297 -432.819)" fill="#3a3768"/>
      <path id="Path_575" data-name="Path 575" d="M670.022,464.15s-5.7,12.482-1.174,22.993l-45.483,14.2-4.355.922-2.01-8.8,1.344-11.1v-6.074Z" transform="translate(-487.558 -358.427)" fill="#d5d6db"/>
      <path id="Path_576" data-name="Path 576" d="M167.89,368.656l62.953-11.476,83.418,13.288-51.813,18.653Z" transform="translate(-129.045 -267.427)" fill="#ff9598"/>
      <path id="Path_577" data-name="Path 577" d="M249.388,446.26s-5.9,11.155.887,21.457l93.354,20.229s-5.795-8.893.307-21.219Z" transform="translate(-210.543 -345.033)" fill="#ff9598"/>
      <path id="Path_578" data-name="Path 578" d="M249.388,446.26s-5.9,11.155.887,21.457l93.354,20.229s-5.795-8.893.307-21.219Z" transform="translate(-210.543 -345.033)" fill="#ff9598" opacity="0.1"/>
      <path id="Path_579" data-name="Path 579" d="M263.084,461.65s-3.365,8.162,0,13.444" transform="translate(-221.457 -356.556)" opacity="0.1"/>
      <path id="Path_580" data-name="Path 580" d="M353.393,551.879l52.117-16.711s2.915.628,1.03,2.764S354.4,554.015,354.4,554.015L260.04,531.65Z" transform="translate(-220.298 -408.965)" fill="#ff6363"/>
      <path id="Path_581" data-name="Path 581" d="M353.393,551.879l52.117-16.711s2.915.628,1.03,2.764S354.4,554.015,354.4,554.015L260.04,531.65Z" transform="translate(-220.298 -408.965)" opacity="0.1"/>
      <path id="Path_582" data-name="Path 582" d="M607.885,536.65s-5.026,6.031,0,15.077" transform="translate(-479.061 -412.709)" opacity="0.1"/>
      <rect id="Rectangle_93" data-name="Rectangle 93" width="23.764" height="0.251" transform="translate(130.616 131.362) rotate(-18.45)" opacity="0.1"/>
      <rect id="Rectangle_94" data-name="Rectangle 94" width="28.956" height="0.251" transform="translate(130.609 133.385) rotate(-20.82)" opacity="0.1"/>
      <rect id="Rectangle_95" data-name="Rectangle 95" width="33.562" height="0.251" transform="translate(130.754 135.768) rotate(-22.26)" opacity="0.1"/>
      <rect id="Rectangle_96" data-name="Rectangle 96" width="38.633" height="0.251" transform="translate(131.123 137.869) rotate(-24.31)" opacity="0.1"/>
      <rect id="Rectangle_97" data-name="Rectangle 97" width="42.254" height="0.251" transform="matrix(0.916, -0.401, 0.401, 0.916, 131.4, 138.891)" opacity="0.1"/>
      <rect id="Rectangle_98" data-name="Rectangle 98" width="50.564" height="0.251" transform="translate(131.985 140.611) rotate(-23.36)" opacity="0.1"/>
      <path id="Path_583" data-name="Path 583" d="M260.96,380.028l44.227-9.3,26.943,5.151-36.241,11.685Z" transform="translate(-198.727 -277.572)" fill="#fff" opacity="0.3"/>
      <path id="Path_584" data-name="Path 584" d="M684.571,453.48s2.287.922.945,2.347-52.755,16.306-52.755,16.306Z" transform="translate(-499.358 -350.439)" fill="#ff6363"/>
      <ellipse id="Ellipse_44" data-name="Ellipse 44" cx="5.777" cy="0.646" rx="5.777" ry="0.646" transform="translate(41.627 195.757)" fill="#6c63ff" opacity="0.1"/>
      <ellipse id="Ellipse_45" data-name="Ellipse 45" cx="5.777" cy="0.646" rx="5.777" ry="0.646" transform="translate(3.755 184.78)" fill="#6c63ff" opacity="0.1"/>
      <ellipse id="Ellipse_46" data-name="Ellipse 46" cx="5.777" cy="0.646" rx="5.777" ry="0.646" transform="translate(70.495 203.047)" fill="#6c63ff" opacity="0.1"/>
      <ellipse id="Ellipse_47" data-name="Ellipse 47" cx="5.777" cy="0.646" rx="5.777" ry="0.646" transform="translate(218.428 187.168)" fill="#6c63ff" opacity="0.1"/>
      <ellipse id="Ellipse_48" data-name="Ellipse 48" cx="5.777" cy="0.646" rx="5.777" ry="0.646" transform="translate(170.354 184.034)" fill="#6c63ff" opacity="0.1"/>
      <ellipse id="Ellipse_49" data-name="Ellipse 49" cx="6.833" cy="1.174" rx="6.833" ry="1.174" transform="translate(138.199 198.262)" fill="#6c63ff" opacity="0.1"/>
      <path id="Path_590" data-name="Path 590" d="M673.267,790.14s-9.514,4.915-4.6,10.7a1.839,1.839,0,0,0,1.8,1.169s-.266-.488.754-.877a4.9,4.9,0,0,0,1.028-.545,2.415,2.415,0,0,0,.92-1.229h0s1.945-2.6.437-7.421a4.774,4.774,0,0,0,.025-1.583l-1.156,1.586a3.237,3.237,0,0,1,1.332,1.98s-1.256-1.978-1.508-1.759c-.055.045-.573.867-.573.867s2.071,1.4,2.224,3.229c0,0-1.166-2.556-2.425-2.92l-.721,1.286s2.262,1.377,2.513,3.448c0,0-1.314-2.626-2.656-3.156l-.53,1.359s2.181,1.387,2.382,3.111c0,0-1.824-2.882-2.48-2.792a6.965,6.965,0,0,0-.357,1.671s1.541,1.03,1.568,2.043c0,0-1.422-1.8-1.641-1.679a7.572,7.572,0,0,0,.347,2.746,5.421,5.421,0,0,1-.631-2.746,3.014,3.014,0,0,0-.912,1.468s-.41-.993.94-1.907a6.949,6.949,0,0,1,.284-1.578,6.624,6.624,0,0,0-2.081,1.588s.229-1.3,2.209-1.952l.5-1.377a9.366,9.366,0,0,0-2.591,1.578s.44-1.294,2.747-1.915l.684-1.256a11.536,11.536,0,0,0-2.618,1.256,4.45,4.45,0,0,1,2.829-1.626l.555-.792s-1.277.455-1.633.618-.427.083-.427.083a4.617,4.617,0,0,1,2.289-1.04A11.19,11.19,0,0,0,673.267,790.14Z" transform="translate(-525.187 -602.5)" fill="#6c63ff"/>
      <path id="Path_591" data-name="Path 591" d="M549.6,138.234c-1.643-4.465-10.69-4.885-14.615-3.747a117.356,117.356,0,0,1-11.811,2.186l-.2-.194c.407-.121.417-.417.367-.857a13.355,13.355,0,0,1,.025-1.739,4.281,4.281,0,0,0,3.638-.817h0c2.262-1.005,1.654-5.307,2.086-6.483a74.6,74.6,0,0,0,.829-8.644h.033l.018-.867c.023-.374.033-.593.033-.593s.221-6.317.653-7.6c.4-1.176.729-7.1.779-8.041v-.123l-.033-.548c.023-.4.033-.844.03-1.312,0-2.149-.224-4.855-.251-5.292v-.229c.018-.917-.1-5.511-4.005-7.247-1.44-.643-3.171-1.41-4.847-2.156-.432-3.732-1.42-7.443-1.335-11.2,0-.565.05-1.131.106-1.694,0,.163-.018.329-.02.5v1.1c.148-4.7,1.925-9.428,1.759-14.029-.015.45-.048.9-.091,1.354a14.6,14.6,0,0,0-.482-4.621,2.735,2.735,0,0,0-.789-1.432,3.25,3.25,0,0,0-1.377-.545,27.7,27.7,0,0,0-3.616-.673,5.581,5.581,0,0,0-.814-1.581c-2.548-3.5-6.322-6.785-10.785-7.539-2.239-.377-4.815-.063-6.337,1.538a4.755,4.755,0,0,0-.447.452c-.819.978-1.171,2.262-2.01,3.237-.055.065-.118.126-.179.188-1.643,1.47-4.2,1.777-6.031,3.1a7.24,7.24,0,0,0-.9.787A15.3,15.3,0,0,0,487,55.264,9.932,9.932,0,0,0,485.074,59c-.525,2.764,1.357,5.385,1.706,8.167.779,6.224-6.109,11.748-4.8,17.889a8.192,8.192,0,0,0,2.216,3.978c-2.686,2.432-4.973,4.792-4.973,4.792v.141h-.425l.043.5h-.043l.234,2.726-.234,3.97v.374h.015a63.486,63.486,0,0,0,.754,7.79c.432,1.279.651,7.6.651,7.6s.477,8.928.915,10.109-.184,5.471,2.086,6.483h0a4.775,4.775,0,0,0,2.279.945c-.116.94-.043,1.621.332,1.834a1.1,1.1,0,0,0,.528.151,5.6,5.6,0,0,0-.41.716,10.645,10.645,0,0,1-2.633-.621c-2.437-1.005-10.526-3.267-12.876-1.676s-8,3.033-5.393,9.436,3.827,6.564,3.827,6.564a9.3,9.3,0,0,1,2.088,2.1c.784,1.179,8.089,3.875,9.916,3.875a17.9,17.9,0,0,1,2.324.116s-1.983,1.739-1.719,2.749-.6,9.1-.6,9.1,2.01,2.025,2.87-.631l.03.04c.161.219,1.03,1.206,2.666-.04a14.949,14.949,0,0,1,2.126-1.347l7.921-1.121a22.422,22.422,0,0,1,2.48-.018,5.183,5.183,0,0,0,3.267-1.216c1.641.623,3.485,1.3,4.362,1.553,1.779.5,9.956,2.7,11.868,2.01a2.656,2.656,0,0,0,1.03-.734l1.824.058-.854.171s1.663.028,3.925.058l-.1.055,2.837-.025c4.151.038,8.815.05,9.428-.088a66.244,66.244,0,0,1,7.418,0h.41s5.481-1.093,3.219-6.654c-1.739-4.272-7.084-5.513-9.456-5.855.668-.133,1.244-.236,1.626-.3,1.656-.251,4.872-1.759,5.134-2.274s2.958-2.01,3.654-2.862S551.249,142.7,549.6,138.234Zm-45.4,12.5-.269.088-.181.06-.347.342c-.276-.186-.573-.382-.882-.583C503.069,150.67,503.629,150.7,504.2,150.731Zm23.95,7.081Z" transform="translate(-373.28 -43.428)" fill="url(#linear-gradient-2)"/>
      <path id="Path_592" data-name="Path 592" d="M686.65,272.661s3.845,10.052,6.031,9.046,1.593-5.277,2.01-6.448.88-10.052.88-10.052.211-6.282.628-7.554a69.253,69.253,0,0,0,.754-7.988v-.123l-.415-7.287-2.347-.586-5.443,2.01-.754,4.3-.294,1.681-.126.716Z" transform="translate(-539.706 -191.854)" fill="#be6f72"/>
      <path id="Path_593" data-name="Path 593" d="M691.69,358.3s3.669,3,4.774,3.267,1.784,2.606,1.784,2.606" transform="translate(-543.479 -279.176)" opacity="0.1"/>
      <path id="Path_594" data-name="Path 594" d="M536.3,274.411s-3.845,10.051-6.031,9.046-1.593-5.277-2.01-6.448-.88-10.052-.88-10.052-.211-6.282-.628-7.554a69.275,69.275,0,0,1-.754-7.988v-.123l.417-7.287,2.347-.586,5.443,2.01.754,4.3.294,1.681.126.716Z" transform="translate(-419.425 -193.164)" fill="#be6f72"/>
      <rect id="Rectangle_99" data-name="Rectangle 99" width="8.581" height="13.376" transform="translate(133.332 27.456)" fill="#3e373a"/>
      <rect id="Rectangle_100" data-name="Rectangle 100" width="8.581" height="13.376" transform="translate(133.332 27.456)" opacity="0.1"/>
      <path id="Path_595" data-name="Path 595" d="M554.783,404.207s-2.933,3.224-1.844,3.81,8.127,11.559,8.127,11.559,23.119,2.847,27.478-1.425,4.272-11.9,4.272-11.9-3.5.754-3.885.344-2.48-2.385-2.48-2.385S556.793,402.408,554.783,404.207Z" transform="translate(-439.413 -312.949)" fill="#4b4b5b"/>
      <path id="Path_596" data-name="Path 596" d="M554.783,404.207s-2.933,3.224-1.844,3.81,8.127,11.559,8.127,11.559,23.119,2.847,27.478-1.425,4.272-11.9,4.272-11.9-3.5.754-3.885.344-2.48-2.385-2.48-2.385S556.793,402.408,554.783,404.207Z" transform="translate(-439.413 -312.949)" opacity="0.02"/>
      <path id="Path_597" data-name="Path 597" d="M577.656,175.51l-7.539,6.031-2.279.166-.837.06-14.054,1.03-14.575-1.065-2.168-.158-2.764-.2-5.78-5.528a98.994,98.994,0,0,1,7.674-7.34,15.75,15.75,0,0,1,3.719-2.485l.166-.058a4.137,4.137,0,0,0,1.593-1.111c2.83-2.917,5.446-10.117,5.446-10.117s12.481-6.448,10.974,2.01,5.611,6.368,5.611,6.368l2.347,1.07.927.425,2.365,1.083,5.335,2.448C578,170.064,577.656,175.51,577.656,175.51Z" transform="translate(-420.668 -125.003)" fill="#be6f72"/>
      <circle id="Ellipse_50" data-name="Ellipse 50" cx="11.225" cy="11.225" r="11.225" transform="translate(120.469 14.168)" opacity="0.1"/>
      <path id="Path_598" data-name="Path 598" d="M576.431,223.92H526V223.8l.417-7.287a98.993,98.993,0,0,1,7.674-7.34l31.662-1.256,1.472-1.553,5.335,2.448c4.189,1.925,3.852,7.37,3.852,7.37S576.986,222.488,576.431,223.92Z" transform="translate(-419.425 -165.417)" opacity="0.1"/>
      <path id="Path_599" data-name="Path 599" d="M576.431,222.92H526V222.8l.417-7.287a98.982,98.982,0,0,1,7.674-7.34l31.662-1.256,1.472-1.553,5.335,2.448c4.189,1.925,3.852,7.37,3.852,7.37S576.986,221.488,576.431,222.92Z" transform="translate(-419.425 -164.668)" fill="#e7c7ca"/>
      <path id="Path_600" data-name="Path 600" d="M584.431,187.378s7.956,10.137,18.553-.209,1.174,23.076,1.174,23.076l-22.867,2.714Z" transform="translate(-460.821 -149.561)" opacity="0.1"/>
      <path id="Path_601" data-name="Path 601" d="M584.431,189.378s7.956,10.137,18.553-.209,1.174,23.076,1.174,23.076l-22.867,2.714Z" transform="translate(-460.821 -151.059)" fill="#e7c7ca"/>
      <path id="Path_602" data-name="Path 602" d="M583.982,201.765l.842,12.838.9,4.272.689,3.267s1.759,25.129,1.256,26.385.251,2.262.357,2.93-.105,2.347-.023,3.1,0,1.088-1.925.819-4.609-.736-4.609-.736-6.785.5-9.129-.334a26.789,26.789,0,0,0-6.785-.839s-6.7.168-8.878-.083-3.352,2.681-4.774,1.842,1.673-8.961,2.679-11.308-1.339-8.293-1.339-8.293L556.26,218.9l.671-3.792V203.184l.166-.058a4.137,4.137,0,0,0,1.593-1.111l.754,12,23.621.839v-13.5" transform="translate(-438.546 -161.666)" opacity="0.1"/>
      <path id="Path_603" data-name="Path 603" d="M583.982,199.765l.842,12.838.9,4.272.689,3.267s1.759,25.129,1.256,26.385.251,2.262.357,2.93-.105,2.347-.023,3.1,0,1.088-1.925.819-4.609-.736-4.609-.736-6.785.5-9.129-.334a26.788,26.788,0,0,0-6.785-.839s-6.7.168-8.878-.083-3.352,2.681-4.774,1.842,1.673-8.961,2.679-11.308-1.339-8.293-1.339-8.293L556.26,216.9l.671-3.792V201.184l.166-.058a4.136,4.136,0,0,0,1.593-1.111l.754,12,23.621.839v-13.5" transform="translate(-438.546 -160.169)" fill="#e7c7ca"/>
      <path id="Path_604" data-name="Path 604" d="M576.226,59.1a2.769,2.769,0,0,0-.754-1.422,3.086,3.086,0,0,0-1.327-.543,26.214,26.214,0,0,0-3.488-.668A5.585,5.585,0,0,0,569.9,54.9c-2.463-3.478-6.106-6.757-10.393-7.5-2.244-.39-4.845-.04-6.282,1.729-.789.972-1.128,2.262-1.925,3.216-1.535,1.855-4.307,2.083-6.242,3.518a11.568,11.568,0,0,0-2.513,2.907,9.973,9.973,0,0,0-1.857,3.717c-.5,2.742,1.309,5.355,1.644,8.122.754,6.189-5.88,11.68-4.626,17.786.731,3.561,4.021,6.069,7.423,7.34,1.2.45,2.568.9,3.128,2.048.251.5.294,1.083.53,1.591.794,1.694,3.4,1.759,4.807.525s1.844-3.229,2.01-5.091c.673-8.132-2.583-16.165-2.2-24.317.113-2.465.807-5.262,3.015-6.378,2.973-1.508,6.549,1.005,9.82.525a19.483,19.483,0,0,1,.94,11.888c-.52,2.169-1.42,4.272-1.485,6.508-.1,3.4,1.739,6.516,3.327,9.526a5.066,5.066,0,0,1,.671,1.837,4.429,4.429,0,0,1-.359,1.922c-.9,2.415-2.445,4.656-2.621,7.227a1.169,1.169,0,0,0,.188.859,1.08,1.08,0,0,0,.648.292c2.714.465,5.061-1.94,6.385-4.355a20.416,20.416,0,0,0,2.518-8.674c.274-5.116-1.56-10.15-1.447-15.271C575.135,70.579,577.766,64.717,576.226,59.1Z" transform="translate(-428.073 -46.297)" opacity="0.1"/>
      <path id="Path_605" data-name="Path 605" d="M577.226,58.1a2.77,2.77,0,0,0-.754-1.422,3.086,3.086,0,0,0-1.327-.543,26.216,26.216,0,0,0-3.488-.668A5.588,5.588,0,0,0,570.9,53.9c-2.463-3.478-6.106-6.757-10.393-7.5-2.244-.389-4.845-.04-6.282,1.729-.789.972-1.128,2.262-1.925,3.216-1.536,1.854-4.307,2.083-6.242,3.518a11.56,11.56,0,0,0-2.513,2.907,9.974,9.974,0,0,0-1.857,3.717c-.5,2.742,1.309,5.355,1.643,8.122.754,6.189-5.88,11.68-4.626,17.786.731,3.561,4.021,6.069,7.423,7.34,1.2.45,2.568.9,3.128,2.048.251.5.294,1.083.53,1.591.794,1.694,3.4,1.759,4.807.525s1.845-3.229,2.01-5.091c.674-8.132-2.583-16.165-2.2-24.317.113-2.465.807-5.262,3.015-6.378,2.973-1.508,6.549,1.005,9.82.525a19.482,19.482,0,0,1,.94,11.888c-.52,2.169-1.42,4.272-1.485,6.508-.1,3.4,1.739,6.516,3.327,9.526a5.071,5.071,0,0,1,.671,1.837,4.43,4.43,0,0,1-.359,1.922c-.9,2.415-2.445,4.656-2.621,7.227a1.168,1.168,0,0,0,.189.859,1.081,1.081,0,0,0,.648.292c2.714.465,5.061-1.94,6.385-4.355a20.414,20.414,0,0,0,2.518-8.674c.274-5.116-1.56-10.15-1.447-15.271C576.135,69.579,578.766,63.717,577.226,58.1Z" transform="translate(-428.822 -45.548)" fill="#3e373a"/>
      <path id="Path_606" data-name="Path 606" d="M581.79,471.654l9.969.319-1.43-7.393-7.637.726Z" transform="translate(-438.937 -347.838)" fill="#c3c7d9"/>
      <path id="Path_607" data-name="Path 607" d="M655.28,420.01c-.671.837-3.267,2.344-3.518,2.847s-3.35,2.01-4.943,2.262-6.616,1.342-7.539,1.927c-.661.422-5.966,1.759-9.451,2.5a26.811,26.811,0,0,1-2.862.515c-1.508.083-18.007-5.528-18.007-5.528l3.181-3.267.176-.06c.9-.3,5.056-1.709,7.363-2.377,2.6-.754,5.614-3.852,5.614-3.852s4.438-1.508,5.026-1.676-1.508-5.863-1.508-5.863,9.632-1.337,13.4-2.47,12.482-.714,14.072,3.727S655.961,419.174,655.28,420.01Z" transform="translate(-481.538 -313.717)" fill="#4b4b5b"/>
      <path id="Path_608" data-name="Path 608" d="M555.234,496.3s-1.925,2.01-3.852,1.845-8.667.5-8.667.5a13.511,13.511,0,0,0-3.395,1.968c-1.576,1.241-2.412.251-2.568.04l-.028-.04c-.84,2.641-2.764.628-2.764.628s.837-8.041.581-9.046,1.656-2.731,1.656-2.731l2.261-.576,5.729-1.467,8.209,2.847Z" transform="translate(-425.385 -375.85)" fill="#e7c7ca"/>
      <path id="Path_609" data-name="Path 609" d="M538.448,493.26l-1.7,11.765-.028-.04c-.84,2.641-2.764.628-2.764.628s.837-8.041.581-9.046,1.656-2.731,1.656-2.731Z" transform="translate(-425.385 -380.222)" opacity="0.1"/>
      <path id="Path_610" data-name="Path 610" d="M599,360.08s4.438,1.508,8.293,0" transform="translate(-474.081 -280.509)" opacity="0.1"/>
      <path id="Path_611" data-name="Path 611" d="M659.29,371.42a3.666,3.666,0,0,0,3.267,0" transform="translate(-519.221 -288.999)" opacity="0.1"/>
      <path id="Path_612" data-name="Path 612" d="M659.29,378.842s3.1.415,3.686-.422" transform="translate(-519.221 -294.24)" opacity="0.1"/>
      <path id="Path_613" data-name="Path 613" d="M655.29,393.509s5.82-.754,7.265-1.759" transform="translate(-516.226 -304.221)" opacity="0.1"/>
      <path id="Path_614" data-name="Path 614" d="M584.62,391.75s3.267,1.842,5.7,1.759" transform="translate(-463.315 -304.221)" opacity="0.1"/>
      <path id="Path_615" data-name="Path 615" d="M629.819,479.52a26.826,26.826,0,0,1-2.862.515c-1.508.083-18.007-5.528-18.007-5.528l3.181-3.267.176-.06c.5.354.915.658,1.209.89,1.385,1.091,2.721-.334,3.224-.334s4.857,3.6,4.857,3.6,4.021.922,4.692,1.759,3.015.671,3.433,1.256A2.243,2.243,0,0,1,629.819,479.52Z" transform="translate(-481.531 -363.691)" opacity="0.1"/>
      <path id="Path_616" data-name="Path 616" d="M495.359,408.889s-4.066.234-6.41-.754-10.134-3.267-12.4-1.666-7.707,3.015-5.194,9.383,3.686,6.534,3.686,6.534a9.072,9.072,0,0,1,2.01,2.086c.754,1.174,7.79,3.852,9.549,3.852a14.6,14.6,0,0,1,9.212,3.016,18.934,18.934,0,0,0,8.293,3.352s5.528,2.262,7.25,2.764,9.587,2.679,11.431,2.01,3.015-4.86,3.015-4.86.837-3.769.417-4.355-2.764-.42-3.433-1.256-4.692-1.759-4.692-1.759-4.345-3.6-4.847-3.6-1.839,1.422-3.224.334a73.544,73.544,0,0,0-8.672-5.528C498.173,416.762,495.359,408.889,495.359,408.889Z" transform="translate(-378.029 -314.827)" fill="#4b4b5b"/>
      <path id="Path_617" data-name="Path 617" d="M536.27,427.13a4.8,4.8,0,0,1,4.119,1.088c2.01,1.676,8.775,5.041,8.775,5.041" transform="translate(-427.114 -330.638)" opacity="0.1"/>
      <path id="Path_618" data-name="Path 618" d="M704.6,427s-8.964,1.357-10.637,3.2" transform="translate(-545.179 -330.613)" opacity="0.1"/>
      <path id="Path_619" data-name="Path 619" d="M708.656,499.984h-.395a67.54,67.54,0,0,0-7.144,0c-1.088.251-15.5,0-15.5,0l2.817-.586s-1.045-3.664-.382-3.968c0,0-3.769-2.483-.927-4.159a8.817,8.817,0,0,1,5.905-.97l7.134-2.417,1.37-.465s8.041.42,10.217,5.948S708.656,499.984,708.656,499.984Z" transform="translate(-538.934 -375.85)" fill="#e7c7ca"/>
      <path id="Path_620" data-name="Path 620" d="M752,500.022H751.6c2.339-1.93,7.632-7.8-8.094-12.087l1.369-.465s8.041.42,10.218,5.948S752,500.022,752,500.022Z" transform="translate(-582.277 -375.887)" opacity="0.1"/>
      <circle id="Ellipse_51" data-name="Ellipse 51" cx="0.44" cy="0.44" r="0.44" transform="translate(154.498 116.742)" fill="#4b4b5b"/>
      <circle id="Ellipse_52" data-name="Ellipse 52" cx="0.44" cy="0.44" r="0.44" transform="translate(151.942 117.468)" fill="#4b4b5b"/>
      <g id="Group_38" data-name="Group 38" transform="translate(109.797 15.802)" opacity="0.1">
        <path id="Path_621" data-name="Path 621" d="M616.112,115.751a19.5,19.5,0,0,0-1.442-8.076c-3.267.487-6.845-2.033-9.82-.525-2.2,1.116-2.892,3.913-3.015,6.378-.03.651-.035,1.3-.023,1.953,0-.231,0-.465.023-.7.115-2.465.807-5.262,3.015-6.378,2.975-1.508,6.549,1.005,9.82.525A19.441,19.441,0,0,1,616.112,115.751Z" transform="translate(-585.978 -106.574)"/>
        <path id="Path_622" data-name="Path 622" d="M552.761,116.794a8.374,8.374,0,0,0-.033-1.643c-.266-2.211-1.475-4.325-1.694-6.481-.281,2.6,1.375,5.1,1.694,7.737A1.574,1.574,0,0,1,552.761,116.794Z" transform="translate(-547.942 -108.077)"/>
        <path id="Path_623" data-name="Path 623" d="M556.882,208.72c-.156,1.865-.6,3.857-2.01,5.094s-4.02,1.169-4.807-.525c-.251-.5-.289-1.088-.533-1.591-.558-1.151-1.93-1.6-3.128-2.048-3.4-1.274-6.689-3.769-7.42-7.34a7.682,7.682,0,0,1-.133-.98,7.919,7.919,0,0,0,.133,2.236c.731,3.561,4.021,6.066,7.42,7.34,1.2.45,2.571.9,3.128,2.048.251.5.294,1.083.533,1.591.792,1.694,3.4,1.759,4.807.525s1.842-3.229,2.01-5.094a28.7,28.7,0,0,0,.078-2.95C556.96,207.6,556.927,208.16,556.882,208.72Z" transform="translate(-538.823 -177.453)"/>
        <path id="Path_624" data-name="Path 624" d="M687.93,119.171v1.088c.141-4.674,1.855-9.373,1.686-13.949C689.485,110.542,688.025,114.869,687.93,119.171Z" transform="translate(-650.461 -106.31)"/>
        <path id="Path_625" data-name="Path 625" d="M654.726,198.746a3.242,3.242,0,0,0,.058-.907,5.025,5.025,0,0,0-.671-1.837c-1.453-2.764-3.109-5.594-3.3-8.662,0,.131-.017.251-.02.392-.1,3.4,1.736,6.516,3.325,9.526A6.034,6.034,0,0,1,654.726,198.746Z" transform="translate(-622.65 -166.978)"/>
        <path id="Path_626" data-name="Path 626" d="M664.549,216.763a20.448,20.448,0,0,1-2.536,8.674c-1.327,2.415-3.671,4.82-6.388,4.355a1.068,1.068,0,0,1-.648-.294.632.632,0,0,1-.118-.2c-.03.2-.055.395-.07.6a1.158,1.158,0,0,0,.188.857,1.068,1.068,0,0,0,.648.294c2.716.465,5.061-1.94,6.388-4.355a20.448,20.448,0,0,0,2.536-8.675c.03-.588.033-1.173.015-1.759C664.559,216.428,664.559,216.594,664.549,216.763Z" transform="translate(-625.635 -188.631)"/>
      </g>
      <path id="Path_627" data-name="Path 627" d="M695.31,509.656a8.892,8.892,0,0,0,10.554-3.237" transform="translate(-546.189 -390.075)" fill="none" stroke="#000" stroke-miterlimit="10" stroke-width="1" opacity="0.1"/>
      <path id="Path_628" data-name="Path 628" d="M700.29,533.288a12.4,12.4,0,0,1,11.81-.111" transform="translate(-549.918 -409.043)" fill="none" stroke="#000" stroke-miterlimit="10" stroke-width="1" opacity="0.1"/>
      <path id="Path_629" data-name="Path 629" d="M561.93,527.126s2.181-4.92,8.006-1.168" transform="translate(-446.326 -403.648)" fill="none" stroke="#000" stroke-miterlimit="10" stroke-width="1" opacity="0.1"/>
      <path id="Path_630" data-name="Path 630" d="M533.79,230.6l4.448-4.021s17.246-1.131,17.96,4.732c0,0,6.114-6.951,18.972-5.4l5.44,4.332-15.037,6.6L550.96,241.91,540.2,237.092Z" transform="translate(-425.258 -179.886)" opacity="0.1"/>
      <path id="Path_631" data-name="Path 631" d="M533.79,231.6l4.448-4.021s17.246-1.131,17.96,4.732c0,0,6.114-6.951,18.972-5.4l5.44,4.332-15.037,6.6L550.96,242.91,540.2,238.092Z" transform="translate(-425.258 -180.635)" fill="#d5d6db"/>
      <path id="Path_632" data-name="Path 632" d="M437.38,204.83l1.968,23.538,20.857,1.048-.9-23.438-.018-.395Z" transform="translate(-330.815 -153.361)" opacity="0.1"/>
      <path id="Path_633" data-name="Path 633" d="M437.38,202.83l1.968,23.538,20.857,1.048-.9-23.438-.018-.395Z" transform="translate(-330.815 -151.863)" fill="#fc9093"/>
      <path id="Path_634" data-name="Path 634" d="M571.225,202.83l-21.515,3.226V229.7l21.025-3.038Z" transform="translate(-414.918 -151.863)" opacity="0.1"/>
      <path id="Path_635" data-name="Path 635" d="M571.225,200.83l-21.515,3.227V227.7l21.025-3.038Z" transform="translate(-414.918 -150.366)" fill="#fd9093"/>
      <path id="Path_636" data-name="Path 636" d="M580.512,223.79l-11.622,1.292.254,3.96L580.5,227.8Z" transform="translate(-429.278 -167.556)" fill="#fff" opacity="0.3"/>
      <path id="Path_637" data-name="Path 637" d="M536.785,327.622l1.184,3.184a3.954,3.954,0,0,0,3.684.754c1.925-.754,3.6-1.128,4.44-1.862s2.01-4.42,2.01-4.42,1.174-4.021,2.344-5.026,4.272-14.854,0-13.5-7.539,13.919-7.539,13.919a2.979,2.979,0,0,1-1.842,1.005c-1.088.085-3.267-.168-3.686.754S535.529,325.78,536.785,327.622Z" transform="translate(-427.122 -240.512)" fill="#be6f72"/>
      <path id="Path_638" data-name="Path 638" d="M619.49,254.393a7.237,7.237,0,0,1-6.31-1.573l.907,23.435a6.394,6.394,0,0,0,5.4,1.784Z" transform="translate(-484.698 -200.202)" opacity="0.1"/>
      <path id="Path_639" data-name="Path 639" d="M619.49,252.393a7.237,7.237,0,0,1-6.31-1.573l.907,23.435a6.394,6.394,0,0,0,5.4,1.784Z" transform="translate(-484.698 -198.705)" fill="#e58487"/>
      <path id="Path_640" data-name="Path 640" d="M619.49,252.393a7.237,7.237,0,0,1-6.31-1.573l.907,23.435a6.394,6.394,0,0,0,5.4,1.784Z" transform="translate(-484.698 -198.705)" opacity="0.1"/>
      <path id="Path_641" data-name="Path 641" d="M640.29,239.611s8.752-2.676,11.034-2.3" transform="translate(-504.995 -188.564)" opacity="0.1"/>
      <path id="Path_642" data-name="Path 642" d="M571.831,237.326s-8.484-2.01-9.9-1.44" transform="translate(-446.326 -187.447)" opacity="0.1"/>
      <path id="Path_643" data-name="Path 643" d="M662.25,243.726s5.852-2.146,7.968-1.126" transform="translate(-521.437 -192.345)" opacity="0.1"/>
      <path id="Path_644" data-name="Path 644" d="M650.52,449.013a19.228,19.228,0,0,1,2.885-1.792,47.086,47.086,0,0,0,4.272-2.611" transform="translate(-512.655 -343.798)" opacity="0.1"/>
      <path id="Path_645" data-name="Path 645" d="M542.388,360.08s-3.671,3-4.774,3.267-1.784,2.606-1.784,2.606" transform="translate(-426.785 -280.509)" opacity="0.1"/>
      <path id="Path_646" data-name="Path 646" d="M668.125,325.864l-1.171,3.191a3.958,3.958,0,0,1-3.686.754c-1.927-.754-3.6-1.128-4.44-1.862s-2.01-4.42-2.01-4.42-1.171-4.021-2.345-5.026-4.272-14.854,0-13.5,7.539,13.919,7.539,13.919a2.98,2.98,0,0,0,1.842,1.005c1.088.085,3.267-.168,3.686.754S669.382,324.03,668.125,325.864Z" transform="translate(-513.977 -239.202)" fill="#be6f72"/>
      <path id="Path_647" data-name="Path 647" d="M707.15,364.94s2.4,1.543,2.39,3.387" transform="translate(-555.054 -284.148)" opacity="0.1"/>
      <circle id="Ellipse_53" data-name="Ellipse 53" cx="11.225" cy="11.225" r="11.225" transform="translate(120.509 13.618)" fill="#be6f72"/>
      <path id="Path_648" data-name="Path 648" d="M581.509,95.04a23,23,0,0,0,3.857-1.46c2.913-1.023,6.134-.322,9.082.6a11.777,11.777,0,0,0,3.465.754,3.507,3.507,0,0,0,3.051-1.508,3.409,3.409,0,0,0-.02-3.149,8.868,8.868,0,0,0-2.051-2.53c-2.613-2.468-5.855-4.774-9.441-4.523a12.993,12.993,0,0,0-4.149,1.189,45.743,45.743,0,0,0-4.87,2.453c-1.209.7-3.448,1.638-4.144,2.92C574.707,92.672,579.047,95.427,581.509,95.04Z" transform="translate(-456.824 -73.209)" fill="#3e373a"/>
      <path id="Path_649" data-name="Path 649" d="M600.961,113.75a3.507,3.507,0,0,1-3.051,1.508,11.786,11.786,0,0,1-3.468-.739c-2.948-.922-6.167-1.626-9.082-.6a21.871,21.871,0,0,1-3.857,1.457c-1.985.312-5.182-1.417-5.528-3.616-.389,2.541,3.317,4.717,5.528,4.37a23.118,23.118,0,0,0,3.857-1.457c2.915-1.025,6.134-.322,9.082.6a11.308,11.308,0,0,0,3.468.739,3.534,3.534,0,0,0,3.051-1.508,2.943,2.943,0,0,0,.352-1.837A2.71,2.71,0,0,1,600.961,113.75Z" transform="translate(-456.821 -94.589)" opacity="0.1"/>
    </g>
  </g>
</svg>
