<svg xmlns="http://www.w3.org/2000/svg" xmlns:xlink="http://www.w3.org/1999/xlink" width="370" height="148" viewBox="0 0 370 148">
  <defs>
    <linearGradient id="linear-gradient" x1="0.5" x2="0.854" y2="0.947" gradientUnits="objectBoundingBox">
      <stop offset="0" stop-color="#fffdcc"/>
      <stop offset="1" stop-color="#f1d64e"/>
    </linearGradient>
    <clipPath id="clip-path">
      <path id="Rectangle_8" data-name="Rectangle 8" d="M20,0H350a20,20,0,0,1,20,20V148a0,0,0,0,1,0,0H0a0,0,0,0,1,0,0V20A20,20,0,0,1,20,0Z" transform="translate(-0.364 0)" opacity="0.1" fill="url(#linear-gradient)"/>
    </clipPath>
    <filter id="Path_1107" x="126.227" y="54.257" width="54.752" height="78.936" filterUnits="userSpaceOnUse">
      <feOffset dy="3" input="SourceAlpha"/>
      <feGaussianBlur stdDeviation="3" result="blur"/>
      <feFlood flood-color="#a4a4a4" flood-opacity="0.161"/>
      <feComposite operator="in" in2="blur"/>
      <feComposite in="SourceGraphic"/>
    </filter>
  </defs>
  <g id="Mask_Group_19" data-name="Mask Group 19" transform="translate(0.364 0)" clip-path="url(#clip-path)">
    <g id="Group_62" data-name="Group 62" transform="translate(-1.508 -53.869)">
      <path id="blob_7_" data-name="blob (7)" d="M233.78,13.172c28.517,17.754,52.4,53.066,42.844,82.1-9.356,29.219-52.372,52.17-92.581,67.1S106.219,184.235,69.7,175.563-2.252,142.818-1.365,115.822c.661-26.787,37.631-56.3,67.242-76.766C95.274,18.6,117.312,7.2,144.81,1.4S205.466-4.4,233.78,13.172Z" transform="translate(94.85 0) rotate(31)" fill="#7d7d7d" opacity="0.09"/>
      <g id="Group_61" data-name="Group 61" transform="translate(136.372 105.351)">
        <path id="Path_1106" data-name="Path 1106" d="M637.187,305.734c10.51-9.278,13.654-23.232,7.966-35.355s-19.088-20.027-33.952-20.027v32.442Z" transform="translate(-574.45 -241.578)" fill="#3f3d56"/>
        <g transform="matrix(1, 0, 0, 1, -135.23, -51.48)" filter="url(#Path_1107)">
          <path id="Path_1107-2" data-name="Path 1107" d="M517.32,250.353c-16.8,0-31.462,10.06-35.611,24.434s3.276,29.406,18.031,36.5l17.58-28.495Z" transform="translate(-345.34 -190.1)" fill="#fff695"/>
        </g>
        <path id="Path_1108" data-name="Path 1108" d="M630.349,554.6l.465,3.42,2.635,1.095,2.944-.821,2.015.821.62-3.147-3.565-3.557Z" transform="translate(-538.273 -432.1)" fill="#ffb9b9"/>
        <path id="Path_1109" data-name="Path 1109" d="M783.755,711.982s-2.4-2.473-2.441-1.236-5.308,5.478-5.308,5.478-8.214,2.189-1.86,3.557,20.3-2.6,20.767-3.42-3.874-7.114-4.339-6.567A8.581,8.581,0,0,1,783.755,711.982Z" transform="translate(-689.82 -586.886)" fill="#2f2e41"/>
        <path id="Path_1110" data-name="Path 1110" d="M774.524,555.1s-.93,6.43,0,7.388a2.578,2.578,0,0,1,0,3.147c-.465.274.62,1.368,1.395,1.915s1.86,3.01,1.86,3.01,4.184,9.714,4.184,10.672,1.86,3.01,1.7,3.694,1.085,2.873.93,3.284,2.015,4.1,1.395,4.652-9.144,2.462-8.679,1.231.775-2.736.465-2.736-1.7-1.5-1.395-2.052-9.3-14.913-9.3-14.913Z" transform="translate(-686.478 -470.638)" fill="#2f2e41"/>
        <path id="Path_1111" data-name="Path 1111" d="M783.755,711.982s-2.4-2.473-2.441-1.236-5.308,5.478-5.308,5.478-8.214,2.189-1.86,3.557,20.3-2.6,20.767-3.42-3.874-7.114-4.339-6.567A8.581,8.581,0,0,1,783.755,711.982Z" transform="translate(-689.82 -586.886)" opacity="0.1"/>
        <path id="Path_1112" data-name="Path 1112" d="M774.524,555.1s-.93,6.43,0,7.388a2.578,2.578,0,0,1,0,3.147c-.465.274.62,1.368,1.395,1.915s1.86,3.01,1.86,3.01,4.184,9.714,4.184,10.672,1.86,3.01,1.7,3.694,1.085,2.873.93,3.284,2.015,4.1,1.395,4.652-9.144,2.462-8.679,1.231.775-2.736.465-2.736-1.7-1.5-1.395-2.052-9.3-14.913-9.3-14.913Z" transform="translate(-686.478 -470.638)" opacity="0.1"/>
        <path id="Path_1113" data-name="Path 1113" d="M555.483,554.384l-1.7,3.831.775,5.336,4.959-.274,2.789-2.189v-4.652Z" transform="translate(-483.245 -433.586)" fill="#ffb9b9"/>
        <path id="Path_1114" data-name="Path 1114" d="M698.919,708.641s-1.7-4.925-2.635-3.557a20.784,20.784,0,0,0-1.55,2.736s-7.594,4.378-9.609,4.378-3.874,2.189-1.24,3.01,22.782,1.915,23.092,0-.31-8.072-1.24-7.388S700,710.009,698.919,708.641Z" transform="translate(-625.75 -583.191)" fill="#2f2e41"/>
        <path id="Path_1115" data-name="Path 1115" d="M715.921,476.1s-3.255,4.925-3.565,5.473-2.015,4.1,1.24,5.473,6.044-9.987,6.044-9.987Z" transform="translate(-646.627 -411.257)" fill="#ffb9b9"/>
        <path id="Path_1116" data-name="Path 1116" d="M728.4,444.148s-4.959,8.482-4.029,8.756,4.649,1.915,4.649,1.915l1.7-8.619Z" transform="translate(-655.698 -387.242)" fill="#575a88"/>
        <path id="Path_1117" data-name="Path 1117" d="M728.4,444.148s-4.959,8.482-4.029,8.756,4.649,1.915,4.649,1.915l1.7-8.619Z" transform="translate(-655.698 -387.242)" opacity="0.1"/>
        <path id="Path_1118" data-name="Path 1118" d="M735.807,472.593s-1.085,7.114-.62,8.619-.31,24.079.31,25.311,1.085,9.167,1.085,10.124a87.124,87.124,0,0,1-1.55,9.44c-.31.684-1.24,3.01-.775,4.1s6.819,3.831,7.749,2.873.155-3.968.93-4.1,1.7-6.567,1.7-6.567l5.114-25.174s9.609-21.069,7.439-23.122S735.807,472.593,735.807,472.593Z" transform="translate(-662.793 -408.572)" fill="#2f2e41"/>
        <ellipse id="Ellipse_125" data-name="Ellipse 125" cx="7.594" cy="6.704" rx="7.594" ry="6.704" transform="translate(71.153 2.044)" fill="#ffb9b9"/>
        <path id="Path_1119" data-name="Path 1119" d="M750.559,260.021s2.48,5.746,2.17,6.977,7.284-2.189,7.284-2.189-.465-6.7,0-8.482S750.559,260.021,750.559,260.021Z" transform="translate(-674.601 -245.801)" fill="#ffb9b9"/>
        <path id="Path_1120" data-name="Path 1120" d="M760.085,315.921c-.034,1.148-.055,1.832-.055,1.832s.465,6.293-.31,8.346-.775,3.557-1.24,4.925c-.136.4-1.992.611-4.6.706-2.39.086-5.41.074-8.31.015-4.8-.1-9.277-.326-10.03-.447-1.7-.274.31-2.6-.31-3.831s1.085-16.965,1.085-16.965-.155-8.893.62-12.313a36.252,36.252,0,0,1,4.339-9.577c.62-.684.155-1.095-1.24-1.915s0-3.968,0-3.968c2.635-1.915,9.3-2.189,9.3-2.189s10.229,9.3,10.848,11.219c.375,1.157.24,10.4.076,17.542C760.2,311.986,760.13,314.375,760.085,315.921Z" transform="translate(-663.305 -264.267)" fill="#575a88"/>
        <path id="Path_1121" data-name="Path 1121" d="M770.369,491.523s-5.889,10.671-1.24,11.356,6.974-9.714,6.974-9.714Z" transform="translate(-686.662 -422.851)" fill="#ffb9b9"/>
        <path id="Path_1122" data-name="Path 1122" d="M735.122,220.37c-.269-1.15.727-2.225,1.775-2.947a14.12,14.12,0,0,1,7.981-2.4,9.473,9.473,0,0,1,5.666,1.659A6.519,6.519,0,0,1,753,222.336a10.534,10.534,0,0,1-2.567,5.766c-.666.814-1.736,1.657-2.8,1.3a2.548,2.548,0,0,1-1.036-.772,14.136,14.136,0,0,1-1.776-2.409,9.39,9.39,0,0,0-1.251-1.9,2.69,2.69,0,0,0-2.176-.88c-.681.083-1.349.506-2,.307-.723-.221-.9-1.037-.955-1.711a10.3,10.3,0,0,0-.251-2.291C737.939,219.867,735.247,220.921,735.122,220.37Z" transform="translate(-663.475 -215.02)" fill="#2f2e41"/>
        <path id="Path_1123" data-name="Path 1123" d="M784.15,347.675c-1.736,5.526-5.717,14.839-5.945,15.24-.057.1-.147.3-.257.569-2.39.086-5.41.074-8.31.015a14.24,14.24,0,0,0,.973-2.363c0-.684,3.719-18.333,3.719-18.333s-2.944-7.8-5.579-14.366,7.826-5.267,7.826-5.267c5.579-1.231,6.587.889,6.587.889s.491,11.533,1.161,16.995a10.065,10.065,0,0,0,.544,2.706C785.118,344.162,784.783,345.669,784.15,347.675Z" transform="translate(-687.37 -296.021)" opacity="0.1"/>
        <path id="Path_1124" data-name="Path 1124" d="M776.7,305.928s-7.129,2.6-4.494,9.167,5.579,14.365,5.579,14.365-3.72,17.649-3.72,18.333-2.325,4.378-1.395,5.062,7.129,2.052,7.284,1.368a42.456,42.456,0,0,1,1.7-4.652c.31-.547,7.594-17.649,6.664-19.154s-1.7-19.7-1.7-19.7S782.276,304.7,776.7,305.928Z" transform="translate(-689.735 -283.225)" fill="#575a88"/>
        <path id="Path_1125" data-name="Path 1125" d="M622.279,445.668l-27.392-22.691-16.173,29.488a40.48,40.48,0,0,0,17.58,3.947C606.441,456.412,615.628,451.539,622.279,445.668Z" transform="translate(-551.101 -371.329)" fill="#575a89"/>
        <path id="Path_1126" data-name="Path 1126" d="M622.279,445.668l-27.392-22.691-16.173,29.488a40.48,40.48,0,0,0,17.58,3.947C606.441,456.412,615.628,451.539,622.279,445.668Z" transform="translate(-551.101 -371.329)" opacity="0.1"/>
        <path id="Path_1127" data-name="Path 1127" d="M614.279,451.916l-25.986-22.94-17.58,28.495C585.025,464.346,602.755,462.085,614.279,451.916Z" transform="translate(-545.352 -375.839)" fill="#575a89"/>
      </g>
    </g>
  </g>
</svg>
