<svg xmlns="http://www.w3.org/2000/svg" xmlns:xlink="http://www.w3.org/1999/xlink" width="370" height="146" viewBox="0 0 370 146">
  <defs>
    <linearGradient id="linear-gradient" x1="0.5" x2="0.5" y2="1" gradientUnits="objectBoundingBox">
      <stop offset="0" stop-color="#94a7e8"/>
      <stop offset="1" stop-color="#256af3"/>
    </linearGradient>
    <clipPath id="clip-path">
      <path id="Rectangle_80" data-name="Rectangle 80" d="M20,0H350a20,20,0,0,1,20,20V146a0,0,0,0,1,0,0H0a0,0,0,0,1,0,0V20A20,20,0,0,1,20,0Z" transform="translate(0 0)" opacity="0.1" fill="url(#linear-gradient)"/>
    </clipPath>
    <linearGradient id="linear-gradient-2" x1="0.5" y1="1" x2="0.5" gradientUnits="objectBoundingBox">
      <stop offset="0" stop-color="gray" stop-opacity="0.251"/>
      <stop offset="0.54" stop-color="gray" stop-opacity="0.122"/>
      <stop offset="1" stop-color="gray" stop-opacity="0.102"/>
    </linearGradient>
  </defs>
  <g id="Mask_Group_11" data-name="Mask Group 11" transform="translate(0 0)" clip-path="url(#clip-path)">
    <g id="Group_37" data-name="Group 37" transform="translate(66.525 -6.656)">
      <path id="Path_421" data-name="Path 421" d="M250.419,60.386c-18.525-.526-36.167-5.441-53-10.818s-33.548-11.325-51.629-14.173c-11.628-1.832-24.927-2.091-34.3,3.03-9.018,4.928-11.93,13.438-13.5,21.336-1.181,5.939-1.873,12.193,1.357,17.752,2.234,3.857,6.223,7.1,8.976,10.8,9.576,12.868,2.809,28.732-7.572,41.294C95.887,135.5,90.239,141.123,86.481,147.4s-5.489,13.465-2.208,19.857c3.258,6.336,11.023,11.1,19.435,14.457,17.084,6.8,37.217,8.752,56.847,9.857,43.454,2.441,87.143,1.377,130.714.325,16.124-.391,32.32-.788,48.184-2.837,8.809-1.138,17.9-2.942,24.29-7.3,8.119-5.532,10.129-14.9,4.691-21.837C359.308,148.28,334.091,145.39,327.7,132.9c-3.512-6.873.095-14.531,5.2-20.906,10.944-13.675,29.29-25.672,30.256-41.3.662-10.744-8.155-21.487-21.791-26.567-14.292-5.325-34.112-4.656-44.671,4.16C285.854,57.361,266.774,60.862,250.419,60.386Z" transform="translate(-82.538 -34.194)" fill="#819eff" opacity="0.1"/>
      <ellipse id="Ellipse_41" data-name="Ellipse 41" cx="81.176" cy="8.077" rx="81.176" ry="8.077" transform="translate(40.397 190.051)" fill="#6c63ff" opacity="0.1"/>
      <path id="Path_445" data-name="Path 445" d="M855.6,270.855c.167-.452-1.089-2.956-1.089-3.08s-1.3-1.521-1.3-2.3-1.72-2.463-1.72-2.463-2.3-.945-2.554-3-2.761-2.1-2.767-2.1h0s0-.187.017-.471a6.792,6.792,0,0,0-.31-2.4,2.462,2.462,0,0,0-1.427-1.193,5.216,5.216,0,0,0-.754-2.094,2.336,2.336,0,0,1-.589-2.215c.251-.78-.335-2.755-1.552-3.03s-2.6-.738-2.6-.738-.137.025-.335.052l-.167-.052a7.586,7.586,0,0,1-.882.107,1.085,1.085,0,0,1-.709-.231c-.421-.452-3.817-1.314-4.445-1.314a10.594,10.594,0,0,1-2.432-.826l-1.8-1.355a11.708,11.708,0,0,1-1.578-2.146l-.017-.03h0a7.387,7.387,0,0,1-.38-1.08h0a9.766,9.766,0,0,0,1.558-2.113c.045-.08.084-.163.123-.242a1.016,1.016,0,0,0,.279-.044.354.354,0,0,0,.109-.041,1.81,1.81,0,0,0,.891-1.05h0a2.638,2.638,0,0,0,.081-.275.163.163,0,0,1,.02-.094.82.82,0,0,0,.039-.187c.011-.063.014-.072.02-.1s.02-.124.028-.187a.4.4,0,0,0,0-.1,1.618,1.618,0,0,1,.031-.234h0a8.2,8.2,0,0,1,.131-.868h0a15.991,15.991,0,0,1,1.413-3.085h0c.07-.146.134-.3.193-.449s.117-.331.165-.5l.042-.154c.031-.121.059-.245.084-.369a1.154,1.154,0,0,1,.031-.165c.028-.171.053-.342.067-.515a6.3,6.3,0,0,0-.416-2.9c-.316-.771-.782-1.466-1.1-2.237-.483-1.168-.609-2.479-1.2-3.6a4.375,4.375,0,0,0-5.218-2.1c-.913.333-1.7.983-2.627,1.275a8.847,8.847,0,0,1-3.844-.08,4.823,4.823,0,0,0-3.73.636c-1.187.95-1.513,2.738-2.627,3.782-.466.438-1.05.719-1.544,1.124a2.48,2.48,0,0,0-.773,1.044.362.362,0,0,1-.028.088c-.008.03-.02.069-.028.1s-.017.083-.022.124a.437.437,0,0,0,0,.085,1.476,1.476,0,0,0,0,.22h0a1.768,1.768,0,0,0,.036.207v.058a1.418,1.418,0,0,0,.053.171.125.125,0,0,0,0,.033c.022.063.047.124.072.187l.042.094.033.077a4.749,4.749,0,0,1,.388.953,1.065,1.065,0,0,1-.036.631,1.932,1.932,0,0,1-.466.6,8.528,8.528,0,0,0-1.89,2.989c-.047.127-.1.253-.137.386h0l.058.014a2.415,2.415,0,0,0,.366.08c.07,0,.14.017.212.022a3.319,3.319,0,0,0,.854-.066c.07-.014.142-.03.212-.05a5.315,5.315,0,0,0,.838-.306v.391a9.759,9.759,0,0,0,5.5,8.735,2.59,2.59,0,0,0,.036.276c.011.1.02.149.028.223l-.112-.107s-.757-.369-1.469.7a4.755,4.755,0,0,1-2.052,1.562s-7.628,1.19-7.921,2.176l-3.563.2s-1.259.165-1.4,2.755-.8,2.835-.8,2.835-1.466,2.545-1.34,3.857a2.158,2.158,0,0,1-1.117,1.972l-.167,2.339a1.607,1.607,0,0,0-1.762,1.4,5.438,5.438,0,0,1-1.047,2.342s-2.306,1.89-2.432,3.49l-1.424.862s-3.311-.738-4.065-2.052l-.232-.215a.217.217,0,0,1-.02-.033.093.093,0,0,0,0,.016,10.43,10.43,0,0,0-1.4-1.207.99.99,0,0,1,.067.661l-.245-.276-.659-.722s-5.352-4.959-8.5-5.339h0c-.042-.08-.243-.859-.779-.372a4.273,4.273,0,0,0-.031,6.336l5.012,4.62.129.094,1.078,1.377c-.182.43-.335.846-.461,1.226a.052.052,0,0,1-.014.036c-.025.083-.053.16-.078.237l-.025.083c-.022.077-.048.154-.07.226s-.025.091-.039.135,0,.052-.022.077c-.117.413-.2.73-.234.906l-.279-.085.279.116v.044l-.017.085.257.11c1.469.631,8.8,3.8,9.174,4.284a5.363,5.363,0,0,0,5.7.78,6,6,0,0,0,3.071-3.328,34.485,34.485,0,0,0,2.513-3.818c.084-.493,1.971-1.069,1.971-1.069s.168,5.509-.8,7.515-2.767,10.925-2.767,10.925a1.347,1.347,0,0,1,.357-.022c-.067.322-.106.515-.106.515a1.263,1.263,0,0,1,.444,0c-.134,1.014-.9,5.719-.9,5.719a11.621,11.621,0,0,1-.67,2.873c-.419.738-.461,4.6-.461,4.6l-.67,2.791a5.347,5.347,0,0,0,.254.482h0a7.169,7.169,0,0,0,1.929,2.46,4.983,4.983,0,0,1-.338,1.278,4.377,4.377,0,0,0-.335,1.97,24.938,24.938,0,0,0-.628,4.066A14.824,14.824,0,0,1,794.9,319l-.779,7.124a66.406,66.406,0,0,0-.251,7.887,14.826,14.826,0,0,1-.17,3.981s.5,4.887.377,5.422-.754,2.832-.377,4.107a22,22,0,0,1,.17,4.763s.251,4.6.542,6.077a10.408,10.408,0,0,1-.084,3.369,24.509,24.509,0,0,1-.419,3.16c-.14,0-1.214,2.176,1.005,4.314s.838,1.8.838,1.8-1.759-.862-1.552.9c.2,1.68.477,1.242.5,1.2l-.419,1.35.279.041-.243.275a6.43,6.43,0,0,1-.838.865,1.8,1.8,0,0,0-.558,1.19,32.534,32.534,0,0,1-5.992,5.011,17.983,17.983,0,0,0-3.406,2.256c-.516.551-.433,1.008.639,1.358a16.642,16.642,0,0,0,9.093.165,10.642,10.642,0,0,0,4.442-2.835,6.454,6.454,0,0,1,3.566-.576c1.762.328,5.279-1.928,5.279-1.928l-.064-.584-.187-1.678A1.307,1.307,0,0,1,806,377a5.258,5.258,0,0,0-.148-1.477c-.028-.163-.061-.325-.092-.477l.321-.058s-.416-2.1.338-2.507.542-5.785.542-5.785a6.558,6.558,0,0,0-1.466-1.435c-.505-.2-.042-2.755.045-3.083s.754-6.694.754-6.694a8.5,8.5,0,0,1,.084-2.873c.335-.862-.4-4.168-.4-4.168a.754.754,0,0,1,.212-.9c.464-.493.279-4.887.279-4.887s-.039-2.218-.039-2.793a10.028,10.028,0,0,1,.963-3.366c.461-.7.167-2.876.167-2.876h0l.025-.163a1.621,1.621,0,0,1,.039-.234l.036-.218a30.66,30.66,0,0,1,.829-3.584c.558-1.724,1.173-4.763,1.173-4.763l3.909-10.027.045-.118a15.608,15.608,0,0,1,1.8,6.336,35.889,35.889,0,0,1,.335,4.642,54.2,54.2,0,0,0,.371,5.6s.544,6.653.544,6.942a39.906,39.906,0,0,0,1.092,6.2c.422.78-.422,3.163-.673,3.408s.084,6.284.084,6.284-.628,4.763-.754,5.749-.628,4.766-.209,6.242.251,1.683.251,1.683,1.511,1.521.628,1.653a2.3,2.3,0,0,0-1.526,1.122,2.247,2.247,0,0,0-.149,1.872,38.073,38.073,0,0,0,1.846,4.408s.26-.058.693-.143v.488l.05,2.446a15.37,15.37,0,0,1,.126,2.876c-.123.391-.279,2.231-.371,3.193-.031.35-.047.584-.047.584s0,2.176,4.651,1.521,5.489-2.463,5.489-2.463a1.083,1.083,0,0,1,.033-.226c.07-.416.221-1.3.344-1.788.167-.658-1.34-3.614-1.34-3.614a7.415,7.415,0,0,0-.673-2.463,2.165,2.165,0,0,1-.335-.862c-.039-.165-.073-.339-.1-.507a3.126,3.126,0,0,1,.31.055s-.251-1.438.715-1.89a1.346,1.346,0,0,0,.586-1.807,13.646,13.646,0,0,1,.377-2.711,1.324,1.324,0,0,1,.335-1.311c.589-.578,1.047-4.6,1.047-4.6l.084-15.523a14.674,14.674,0,0,0-.039-3.857c-.335-1.1-.673-3.242-.212-3.818s.042-3.242.042-3.242,0-5.628.631-7.022.419-10.226.419-10.226l.165-5.785s1.371-1.278,1.047-7.942a11.282,11.282,0,0,1,3.35.055c.461.372,3.437,2.259,5.2,1.069a23.442,23.442,0,0,0,2.094-1.6l-.737-12.314c.461.686.74,1.143.74,1.143,0-1.724,4.944-7.311,4.944-7.311s4.61-5.87,5.615-6.57,2.976-4.394,2.976-4.394a17.688,17.688,0,0,1,1.008-2.052C856.944,273.279,855.433,271.307,855.6,270.855Zm-10.816,4.309c-1.256.124-3.909,2.959-3.94,3.581a2.485,2.485,0,0,1-.558,1.1c-.02-.248-.042-.5-.061-.758a84.148,84.148,0,0,1-.472-8.479,24.26,24.26,0,0,0,.167-4.063h0l.045-.063a20.75,20.75,0,0,0,3.47,5.614s.461,1.314,1.005,1.355S844.785,275.163,844.785,275.163Z" transform="translate(-578.582 -189.566)" fill="url(#linear-gradient-2)"/>
      <path id="Path_446" data-name="Path 446" d="M795.34,403.708s1.527-7.906,6.444-7.948l3.593,7.295-2.4,1.631S797.777,404.848,795.34,403.708Z" transform="translate(-596.329 -319.044)" fill="#65617d"/>
      <path id="Path_447" data-name="Path 447" d="M805.377,403.076l-2.4,1.631a28.6,28.6,0,0,1-6.282-.521,7.587,7.587,0,0,1-1.36-.457.445.445,0,0,1,.028-.127v-.03a17.673,17.673,0,0,1,.93-2.9c.154-.355.324-.722.508-1.088a7.4,7.4,0,0,1,3.116-3.369,4.283,4.283,0,0,1,1.639-.421h.218l.078.163,1.214,2.463Z" transform="translate(-596.329 -319.065)" opacity="0.1"/>
      <path id="Path_448" data-name="Path 448" d="M967.755,481.99s5.165-.488,5.617-.121,3.387,2.24,5.123,1.058.578-5.3.578-5.46-.165-5.992-.165-5.992l-3.1-4.116-3.881-7.212L964,459.37l.207,11.454-.042,5.868Z" transform="translate(-717.899 -365.131)" fill="#65617d"/>
      <path id="Path_449" data-name="Path 449" d="M967.755,481.99s5.165-.488,5.617-.121,3.387,2.24,5.123,1.058.578-5.3.578-5.46-.165-5.992-.165-5.992l-3.1-4.116-3.881-7.212L964,459.37l.207,11.454-.042,5.868Z" transform="translate(-717.899 -365.131)" opacity="0.1"/>
      <path id="Path_450" data-name="Path 450" d="M784.331,375.276s-.413,4.972-3.551,5.052c0,0-.891-.529-2.089-1.41-2.758-2.036-7.133-5.95-5.924-9.592,1.734-5.215,10.16,4.408,10.16,4.408l.645.716Z" transform="translate(-579.909 -298.769)" fill="#fbbebe"/>
      <path id="Path_451" data-name="Path 451" d="M799.475,392.826s-.413,4.972-3.551,5.052c0,0-.891-.529-2.088-1.41l-.265-.339a4.172,4.172,0,0,0,1.72.457,2.328,2.328,0,0,0,2.234-1.4,17.391,17.391,0,0,0,.868-1.972,5.71,5.71,0,0,0,.324-1.218Z" transform="translate(-595.053 -316.32)" opacity="0.1"/>
      <path id="Path_452" data-name="Path 452" d="M798.747,400.716l-.706-.9-2.379-3.03-1.212-1.545a4.124,4.124,0,0,0,1.72.457,2.3,2.3,0,0,0,2.234-1.394,17.7,17.7,0,0,0,.868-1.975c.391-1.1.385-1.653.246-1.854a11.623,11.623,0,0,1,1.365,1.2l.017.017.229.212.084.165,1.2,2.361v.1C802.527,395.284,802.932,400.041,798.747,400.716Z" transform="translate(-595.687 -315.196)" fill="#e7effd"/>
      <path id="Path_453" data-name="Path 453" d="M839.1,791.433s-3.47,2.242-5.2,1.928a6.427,6.427,0,0,0-3.512.573,10.48,10.48,0,0,1-4.38,2.813,16.222,16.222,0,0,1-8.959-.165c-1.055-.347-1.142-.794-.634-1.347a17.662,17.662,0,0,1,3.35-2.24,32.271,32.271,0,0,0,5.9-4.959,1.733,1.733,0,0,1,.539-1.179,6.4,6.4,0,0,0,.838-.859c.444-.518.86-1.058.86-1.058l10.208.292s.173.725.31,1.466a5.241,5.241,0,0,1,.142,1.469,1.316,1.316,0,0,0,.279,1.016l.184,1.653Z" transform="translate(-611.301 -601.013)" fill="#65617d"/>
      <path id="Path_454" data-name="Path 454" d="M948.176,796.209c-.123.488-.279,1.361-.338,1.771l-.036.226s-.838,1.793-5.408,2.446-4.584-1.51-4.584-1.51.017-.231.045-.581a31.234,31.234,0,0,1,.369-3.168,14.458,14.458,0,0,0-.126-2.854l-.047-2.427-.036-1.686,7.6-.777a13.461,13.461,0,0,0,.246,1.669,2.123,2.123,0,0,0,.332.857,7.439,7.439,0,0,1,.659,2.446S948.341,795.556,948.176,796.209Z" transform="translate(-699.022 -602.977)" fill="#65617d"/>
      <path id="Path_455" data-name="Path 455" d="M866.222,785.138s.173.724.31,1.466c-1.1.2-5.922,1.025-7.125.449a19.09,19.09,0,0,0-4.3-1.019l.047-.166c.444-.518.86-1.058.86-1.058Z" transform="translate(-639.411 -600.919)" opacity="0.1"/>
      <path id="Path_456" data-name="Path 456" d="M946.374,789.319c-1.927-.322-6.142.457-7.818.793l-.036-1.686,7.6-.777A13.38,13.38,0,0,0,946.374,789.319Z" transform="translate(-699.533 -602.977)" opacity="0.1"/>
      <path id="Path_457" data-name="Path 457" d="M888.605,504.487l-.165,5.747s.207,8.763-.413,10.149-.62,6.97-.62,6.97.413,2.647-.042,3.218-.123,2.689.207,3.791a14.771,14.771,0,0,1,.042,3.832l-.084,15.4s-.452,3.992-1.033,4.565a1.324,1.324,0,0,0-.33,1.3,13.726,13.726,0,0,0-.371,2.691,1.341,1.341,0,0,1-.578,1.791c-.949.446-.7,1.876-.7,1.876-2.27-.532-8.714.9-8.714.9a37.938,37.938,0,0,1-1.818-4.364,2.23,2.23,0,0,1,.145-1.855,2.284,2.284,0,0,1,1.508-1.117c.866-.124-.62-1.631-.62-1.631s.165-.2-.249-1.669.081-5.234.207-6.2l.743-5.705s-.329-5.989-.081-6.234,1.072-2.609.662-3.383a40.517,40.517,0,0,1-1.078-6.154c0-.286-.533-6.887-.533-6.887a53.959,53.959,0,0,1-.371-5.584,35.443,35.443,0,0,0-.332-4.6,15.466,15.466,0,0,0-1.776-6.278l-.045.119-3.828,9.95s-.62,3.014-1.156,4.724a30.512,30.512,0,0,0-.807,3.54l-.036.218a1.369,1.369,0,0,1-.036.229l-.025.165h0s.279,2.16-.168,2.854a10.207,10.207,0,0,0-.949,3.342c0,.57.042,2.771.042,2.771s.165,4.361-.279,4.851a.774.774,0,0,0-.209.9s.743,3.306.413,4.157a8.5,8.5,0,0,0-.081,2.851s-.662,6.32-.743,6.645-.539,2.854-.042,3.058a6.536,6.536,0,0,1,1.443,1.424s.209,5.342-.536,5.747-.332,2.479-.332,2.479-5.986,1.141-7.348.488a19.054,19.054,0,0,0-4.3-1.019l.41-1.339c-.025.047-.3.482-.494-1.187-.2-1.752,1.53-.9,1.53-.9s1.362.328-.838-1.791-1.117-4.281-.991-4.281a26.8,26.8,0,0,0,.416-3.135,10.294,10.294,0,0,0,.081-3.344c-.29-1.468-.536-6.033-.536-6.033a21.909,21.909,0,0,0-.165-4.725c-.371-1.262.246-3.548.371-4.077s-.385-5.366-.385-5.366a14.843,14.843,0,0,0,.165-3.95,66.183,66.183,0,0,1,.249-7.826l.743-7.091a14.928,14.928,0,0,0,.455-3.1,25.011,25.011,0,0,1,.623-4.033,4.353,4.353,0,0,1,.329-1.956,14.907,14.907,0,0,0,.578-3.5l3.967-8.967,1.954-7.906,26.225-.245s.1.686.257,1.928.383,3.088.631,5.366c.229,2.069.48,4.5.723,7.209C890.28,502.939,888.605,504.487,888.605,504.487Z" transform="translate(-637.479 -379.925)" fill="#3f3d56"/>
      <path id="Path_458" data-name="Path 458" d="M937.27,292.88l-6.114,6.441s-7.845-3.1-7.019-4.157c.318-.41.279-1.705.084-3.132-.279-2.259-.91-4.857-.91-4.857s13.711-2.2,12.564.08a3.7,3.7,0,0,0-.087,2.708A10.147,10.147,0,0,0,937.27,292.88Z" transform="translate(-688.57 -239.679)" fill="#fbbebe"/>
      <path id="Path_459" data-name="Path 459" d="M935.865,287.27c-.422.826-.623.915-.36,1.815-1.792,1.893-4.073,3.97-6.91,3.97a9.9,9.9,0,0,1-4.375-1.011c-.279-2.259-.91-4.857-.91-4.857S937.021,284.983,935.865,287.27Z" transform="translate(-688.57 -239.688)" opacity="0.1"/>
      <path id="Path_460" data-name="Path 460" d="M926.69,249.2a9.833,9.833,0,0,1-19.665,0c0-.047,0-.094,0-.138a9.832,9.832,0,0,1,19.661.138Z" transform="translate(-676.832 -205.779)" fill="#fbbebe"/>
      <path id="Path_461" data-name="Path 461" d="M911.174,493.052c-1.3,0-5.637.047-10.484.121h-.059l-1.6.028h-.05c-5.746.091-11.411-1.017-13.681-.807-4.83.446,1.737-4.408,1.737-4.408a40.938,40.938,0,0,0,11.009,1.1l1.4-.071a60.083,60.083,0,0,0,11.109-1.336C910.705,488.942,910.926,490.774,911.174,493.052Z" transform="translate(-659.895 -385.642)" opacity="0.1"/>
      <path id="Path_462" data-name="Path 462" d="M911.174,492.169c-1.3,0-5.637.047-10.484.121h-.059l-1.6.028h-.05c-5.746.091-11.411-1.016-13.681-.807-4.83.449,1.737-4.408,1.737-4.408a40.943,40.943,0,0,0,11.009,1.1l1.4-.072a60.352,60.352,0,0,0,11.109-1.333C910.705,488.062,910.926,489.885,911.174,492.169Z" transform="translate(-659.895 -385.004)" fill="#5f5d7e"/>
      <path id="Path_463" data-name="Path 463" d="M898.023,316.306l-7.6,3.507-5.863,44.746s3.468-1.548,5.453-.57,8.1.083,8.1.083,4.467-.245,5.123.245,8.421-2.05,8.421-2.05,1.4-3.1.329-3.581.341-5.292.341-5.292l-.67-32.278-1.323-4.157-3.551-2.118-3.63,2.851-1.734.245Z" transform="translate(-660.639 -260.416)" opacity="0.1"/>
      <path id="Path_464" data-name="Path 464" d="M898.023,314.528l-7.6,3.5-5.863,44.749s3.468-1.548,5.453-.57,8.1.08,8.1.08,4.467-.242,5.123.245,8.426-2.038,8.426-2.038,1.4-3.1.33-3.581.335-5.306.335-5.306l-.67-32.275-1.323-4.154-3.551-2.121-3.63,2.854-1.734.245Z" transform="translate(-660.639 -259.126)" fill="#e7effd"/>
      <path id="Path_465" data-name="Path 465" d="M917.071,324.169s2.189,2.567,2.15,3.1-.126,1.793-.126,1.793l-1.653,3.306s-.907,4.116-.907,4.972-1.446,8.264-1.446,8.264l-1.739,11.413-2.189,14.958,2.234,3.788,2.641-2.2,3.512-26.655.742-5.256s.785-9.454.785-10.432a33,33,0,0,0-.452-3.546,4.215,4.215,0,0,1,2.767-3.03c2.231-.584-.165-.124-.165-.124l-1.281-1.016-1.117.446S917.732,323.029,917.071,324.169Z" transform="translate(-679.812 -266.69)" opacity="0.1"/>
      <path id="Path_466" data-name="Path 466" d="M916.195,323.333s2.192,2.567,2.15,3.1-.126,1.793-.126,1.793l-1.65,3.306s-.91,4.116-.91,4.972-1.446,8.264-1.446,8.264l-1.734,11.41-2.189,14.958,2.234,3.791,2.644-2.2,3.509-26.653.746-5.253s.784-9.454.784-10.432a33.009,33.009,0,0,0-.452-3.545,4.183,4.183,0,0,1,2.767-3.016c2.231-.57-.165-.121-.165-.121l-1.281-1.019-1.117.449S916.857,322.19,916.195,323.333Z" transform="translate(-679.185 -266.096)" fill="#819eff"/>
      <path id="Path_467" data-name="Path 467" d="M922,309.51s-.332.245-.413,1.876a32.12,32.12,0,0,1-1.24,5.3s4.3-2.934,6.444-2.609Z" transform="translate(-686.436 -256.554)" opacity="0.1"/>
      <path id="Path_468" data-name="Path 468" d="M922,307.74s-.332.242-.413,1.873a32.12,32.12,0,0,1-1.24,5.3s4.3-2.934,6.444-2.606Z" transform="translate(-686.436 -255.271)" fill="#e7effd"/>
      <path id="Path_469" data-name="Path 469" d="M950.779,304.78,944,310.648s5.7,3.341,6.444,4.157,1.485-7.989,1.485-7.989Z" transform="translate(-703.483 -253.127)" opacity="0.1"/>
      <path id="Path_470" data-name="Path 470" d="M951.683,303l-6.773,5.87s5.7,3.342,6.447,4.157,1.485-7.989,1.485-7.989Z" transform="translate(-704.139 -251.837)" fill="#e7effd"/>
      <path id="Path_471" data-name="Path 471" d="M876.326,309.349s-.743-.366-1.443.694a4.682,4.682,0,0,1-2.024,1.548s-7.519,1.182-7.818,2.16l-3.512.2s-1.24.163-1.362,2.73-.785,2.813-.785,2.813-1.446,2.526-1.321,3.829a2.141,2.141,0,0,1-1.117,1.959l5.162,13.245s.168,5.46-.785,7.457-2.725,10.84-2.725,10.84.743-.163.7.325-.882,5.829-.882,5.829a11.635,11.635,0,0,1-.662,2.854c-.413.736-.455,4.562-.455,4.562l-.659,2.771s1.569,3.465,3.965,2.975,6.731-9.738,6.731-9.738l2.77-9.986,2.147-9.862.62-6.683.991-14.793,1.446-9.782S876.907,310.035,876.326,309.349Z" transform="translate(-640.514 -256.393)" opacity="0.1"/>
      <path id="Path_472" data-name="Path 472" d="M875.374,307.579s-.745-.366-1.446.692a4.657,4.657,0,0,1-2.024,1.548s-7.516,1.182-7.818,2.16l-3.512.2s-1.237.165-1.363,2.733-.785,2.81-.785,2.81-1.446,2.529-1.32,3.832a2.135,2.135,0,0,1-1.117,1.956l5.165,13.245s.165,5.46-.785,7.457-2.728,10.843-2.728,10.843.743-.165.7.325-.91,5.826-.91,5.826a11.6,11.6,0,0,1-.662,2.854c-.413.733-.452,4.565-.452,4.565l-.662,2.771s1.569,3.463,3.965,2.975,6.74-9.741,6.74-9.741l2.767-9.983,2.147-9.862.62-6.686.991-14.793,1.446-9.779S875.952,308.27,875.374,307.579Z" transform="translate(-639.808 -255.11)" fill="#65617d"/>
      <path id="Path_473" data-name="Path 473" d="M804.728,402.41l-2.4,1.631a28.608,28.608,0,0,1-6.282-.521l-1.332-.584-.279-.116.279.085a5.519,5.519,0,0,0,3.308.116c3.39-1.127,3.015-6.65,2.884-7.9a1.028,1.028,0,0,0-.028-.237.074.074,0,0,1,0-.016l.02.033a1.816,1.816,0,0,0,.156.215c.048.052.1.108.151.16h0l1.2,2.361v.1Z" transform="translate(-595.68 -318.399)" opacity="0.1"/>
      <path id="Path_474" data-name="Path 474" d="M813.672,364.4l-1.159.325-.165,2.322a1.583,1.583,0,0,0-1.734,1.377,5.638,5.638,0,0,1-1.033,2.325s-2.273,1.873-2.4,3.463l-1.4.857s-3.264-.735-4.006-2.038c0,0,1.488,10.515-6.444,7.948,0,0,8.881,3.829,9.294,4.361a5.254,5.254,0,0,0,5.617.774,5.9,5.9,0,0,0,3.016-3.306,34.46,34.46,0,0,0,2.476-3.791c.081-.485,1.954-1.061,1.954-1.061l3.551-8.476Z" transform="translate(-596.329 -296.323)" fill="#65617d"/>
      <path id="Path_475" data-name="Path 475" d="M962.732,308.38l1.2-5.38A6.282,6.282,0,0,0,965,305.16l1.775,1.347a10.426,10.426,0,0,0,2.4.813c.62,0,3.964.857,4.378,1.306s2.066.121,2.066.121,1.362.449,2.56.733,1.776,2.242,1.527,3.03a2.328,2.328,0,0,0,.578,2.2,5.2,5.2,0,0,1,.745,2.08,2.409,2.409,0,0,1,1.4,1.182,8.013,8.013,0,0,1,.279,2.851l-6.142,8.559a24.758,24.758,0,0,1-.165,4.036c-.246.73.865,13.2.865,13.2l1.282,21.435a22.931,22.931,0,0,1-2.066,1.59c-.371.163-.743-7.578-.743-7.865s-9.54-14.1-9.54-14.1a12.647,12.647,0,0,1-1.282-2.479c0-.443-1.2-4.565-1.2-4.565l-1.818-7.948Z" transform="translate(-716.386 -251.837)" opacity="0.1"/>
      <path id="Path_476" data-name="Path 476" d="M984.6,320.355v.468l-6.142,8.54h0a24.673,24.673,0,0,1-.162,4.033,82.812,82.812,0,0,0,.464,8.416c.207,2.6.4,4.788.4,4.788l.544,9.091.734,12.341a22.825,22.825,0,0,1-2.063,1.59c-.371.162-.743-7.579-.743-7.865s-9.543-14.1-9.543-14.1a12.806,12.806,0,0,1-1.282-2.479c0-.438-1.2-4.565-1.2-4.565l-1.815-7.948.824-24.289L965.3,303a11.786,11.786,0,0,0,1.569,2.16l1.776,1.344a10.308,10.308,0,0,0,2.4.826c.62,0,3.967.854,4.381,1.3s2.063.121,2.063.121,1.363.449,2.56.733,1.779,2.242,1.53,3.03a2.323,2.323,0,0,0,.578,2.2,5.2,5.2,0,0,1,.743,2.077,2.42,2.42,0,0,1,1.4,1.185A6.181,6.181,0,0,1,984.6,320.355Z" transform="translate(-717.755 -251.837)" fill="#65617d"/>
      <path id="Path_477" data-name="Path 477" d="M857.48,760.14c.2,0,8.878.325,8.714,1.711S857.48,760.14,857.48,760.14Z" transform="translate(-641.119 -583.045)" opacity="0.1"/>
      <path id="Path_478" data-name="Path 478" d="M864.43,768.57s5.824.937,4.294,1.793S864.43,768.57,864.43,768.57Z" transform="translate(-646.129 -589.153)" opacity="0.1"/>
      <path id="Path_479" data-name="Path 479" d="M942,756.88s9.666.827,8.219,1.876-4.875,1.22-5.026,1.262S942,756.88,942,756.88Z" transform="translate(-702.042 -580.683)" opacity="0.1"/>
      <path id="Path_480" data-name="Path 480" d="M937.81,772.12s5.369.9,5.534,1.928S937.81,772.12,937.81,772.12Z" transform="translate(-699.022 -591.725)" opacity="0.1"/>
      <path id="Path_481" data-name="Path 481" d="M948.46,683.06s4.914,1.141,5.2,1.929Z" transform="translate(-706.698 -527.199)" opacity="0.1"/>
      <path id="Path_482" data-name="Path 482" d="M877.549,695.78s-2.56.733-.081,2.2S877.549,695.78,877.549,695.78Z" transform="translate(-654.748 -536.415)" opacity="0.1"/>
      <path id="Path_483" data-name="Path 483" d="M921.24,551.012c.279,0,4.791-1.466,6.36-.826a10.592,10.592,0,0,0,3.51.658Z" transform="translate(-687.078 -430.811)" opacity="0.1"/>
      <path id="Path_484" data-name="Path 484" d="M908.216,564.58l-.045.4-3.839,9.95s-.62,3.014-1.156,4.724a30.591,30.591,0,0,0-.807,3.54l3.409-20.859Z" transform="translate(-673.476 -439.735)" opacity="0.1"/>
      <path id="Path_485" data-name="Path 485" d="M938.108,495.8l-1.6.028h-.05l-.938-4.107,1.4-.074Z" transform="translate(-697.371 -388.518)" fill="#3f3d56"/>
      <path id="Path_486" data-name="Path 486" d="M971.654,478.36l-1.03.826-3.431,2.791s-9.294,4.892-11.854.245c-2.256-4.094,8.281-7.016,10.819-7.653.343-.086.539-.13.539-.13Z" transform="translate(-711.429 -376.049)" fill="#fbbebe"/>
      <path id="Path_487" data-name="Path 487" d="M872.42,343.24s1.818.826,2.233,1.956S872.42,343.24,872.42,343.24Z" transform="translate(-651.888 -280.992)" opacity="0.1"/>
      <path id="Path_488" data-name="Path 488" d="M847.585,387.62s-2.644,3.179-1.569,4.408S847.585,387.62,847.585,387.62Z" transform="translate(-632.671 -313.146)" opacity="0.1"/>
      <path id="Path_489" data-name="Path 489" d="M1014.93,349.75s-2.479.245-2.56,2.364Z" transform="translate(-752.765 -285.709)" opacity="0.1"/>
      <path id="Path_490" data-name="Path 490" d="M939.29,450.362c.245-.245,5.947-8.559,7.259-7.824Z" transform="translate(-700.089 -352.903)" opacity="0.1"/>
      <path id="Path_491" data-name="Path 491" d="M926.694,249.2a9.54,9.54,0,0,1-1.164,4.578l-.073-.014c-.623-.129-.946-.846-1.424-1.292a1.955,1.955,0,0,0-2.234-.309,2.231,2.231,0,0,0-1.094,2.091c-.316-1.306-.215-2.691-.522-4s-1.231-2.631-2.5-2.653c-.558,0-1.181.2-1.577-.207-.237-.242-.279-.625-.464-.923-.9-1.444-3.66-.713-4.785.028a29.309,29.309,0,0,1-3.828,2.562,9.832,9.832,0,0,1,19.661.138Z" transform="translate(-676.835 -205.779)" opacity="0.1"/>
      <path id="Path_492" data-name="Path 492" d="M909.238,232.469c.179.295.226.678.463.92.394.4,1.033.2,1.578.207,1.267.022,2.192,1.344,2.5,2.653s.207,2.694.522,4a2.226,2.226,0,0,1,1.1-2.091,1.955,1.955,0,0,1,2.234.309c.477.446.8,1.163,1.424,1.292s1.223-.46,1.449-1.1a17.247,17.247,0,0,0,.357-2.03,25.185,25.185,0,0,1,1.586-3.523,6.3,6.3,0,0,0-.042-4.551c-.31-.766-.771-1.454-1.086-2.218-.475-1.163-.6-2.479-1.178-3.581a4.3,4.3,0,0,0-5.146-2.083c-.9.331-1.675.975-2.588,1.264a8.637,8.637,0,0,1-3.789-.077,4.742,4.742,0,0,0-3.677.628c-1.17.945-1.488,2.719-2.588,3.755-.461.435-1.033.714-1.519,1.1a1.975,1.975,0,0,0-.838,1.653c.073.843.91,1.609.6,2.391a1.93,1.93,0,0,1-.458.6,8.5,8.5,0,0,0-2,3.355c2.208.683,4.6-1.722,6.332-2.859C905.58,231.755,908.333,231.022,909.238,232.469Z" transform="translate(-670.427 -192.019)" fill="#7c5c5c"/>
      <path id="Path_493" data-name="Path 493" d="M999.979,478.36l-1.03.826c-.907-1.488-4.629-4.463-4.629-4.463l.162-.154c.344-.085.539-.13.539-.13Z" transform="translate(-739.754 -376.049)" opacity="0.1"/>
      <path id="Path_494" data-name="Path 494" d="M1001.612,473.438s-.372.909-.751,1.691-.8,1.5-.818.917c-.042-1.14-4.833-4.972-4.833-4.972l.65-.622.751-.722Z" transform="translate(-740.396 -372.637)" fill="#e7effd"/>
      <path id="Path_495" data-name="Path 495" d="M1001.878,448.7l.544,9.091c-1.284-1.97-4.808-7.016-7.072-6.854l5.486-6.229a7.412,7.412,0,0,0,.631-.8C1001.674,446.508,1001.878,448.7,1001.878,448.7Z" transform="translate(-740.497 -353.93)" opacity="0.1"/>
      <path id="Path_496" data-name="Path 496" d="M1003.291,473.423s-.371.909-.751,1.692c-1.441-1.948-3.42-4.248-5-4.683l.751-.722Z" transform="translate(-742.075 -372.622)" opacity="0.1"/>
      <path id="Path_497" data-name="Path 497" d="M1006.462,363.51l1.488,1.141s2.476.041,2.725,2.08,2.513,2.975,2.513,2.975,1.692,1.669,1.692,2.444,1.282,2.16,1.282,2.284,1.239,2.609,1.072,3.055,1.323,2.4.868,3.138a17.985,17.985,0,0,0-.991,2.039s-1.94,3.669-2.931,4.361-5.536,6.521-5.536,6.521-4.872,5.543-4.872,7.253c0,0-4.746-7.824-7.561-7.62l5.495-6.237s.949-1.017.991-1.628,2.644-3.424,3.884-3.545c0,0,.2-1.672-.332-1.714s-.991-1.344-.991-1.344-3.63-4.237-3.677-6.928S1006.462,363.51,1006.462,363.51Z" transform="translate(-741.116 -295.678)" fill="#65617d"/>
      <path id="Path_498" data-name="Path 498" d="M1033.465,377.56s-3.467,2.529-2.725,3.342S1033.465,377.56,1033.465,377.56Z" transform="translate(-765.931 -305.858)" opacity="0.1"/>
      <path id="Path_499" data-name="Path 499" d="M1041.36,413.057s6.444-2.039,7.106,0Z" transform="translate(-773.661 -330.92)" opacity="0.1"/>
      <path id="Path_500" data-name="Path 500" d="M839.1,807.032s-3.47,2.242-5.2,1.928a6.429,6.429,0,0,0-3.512.573,10.479,10.479,0,0,1-4.38,2.813,16.223,16.223,0,0,1-8.959-.165c-1.055-.347-1.142-.793-.634-1.347,2.426.477,7.845,1.427,9.306.736a38.911,38.911,0,0,0,4.626-2.854s3.554-.488,4.048-.488a45.389,45.389,0,0,0,4.646-1.758Z" transform="translate(-611.301 -616.612)" opacity="0.1"/>
      <path id="Path_501" data-name="Path 501" d="M947.839,825.15l-.036.226s-.838,1.793-5.408,2.446-4.584-1.51-4.584-1.51.017-.231.045-.581C939.306,826.274,942.473,826.88,947.839,825.15Z" transform="translate(-699.022 -630.146)" opacity="0.1"/>
      <path id="Path_502" data-name="Path 502" d="M875.894,375.79s0,9.292-.807,10.209S875.894,375.79,875.894,375.79Z" transform="translate(-653.647 -304.575)" opacity="0.1"/>
      <path id="Path_503" data-name="Path 503" d="M1011.92,386.66l1.2,3.322S1013.6,386.721,1011.92,386.66Z" transform="translate(-752.44 -312.451)" opacity="0.1"/>
      <g id="Group_36" data-name="Group 36" transform="translate(227.693 36.251)" opacity="0.1">
        <path id="Path_504" data-name="Path 504" d="M905.435,251.206c.3-.766-.491-1.515-.595-2.336a1.511,1.511,0,0,0-.131.738,14.539,14.539,0,0,0,.636,1.766A1.078,1.078,0,0,0,905.435,251.206Z" transform="translate(-902.853 -248.87)"/>
        <path id="Path_505" data-name="Path 505" d="M914.361,266.748c-.3-1.284-.209-2.645-.511-3.931s-1.231-2.631-2.5-2.653c-.558,0-1.184.2-1.578-.2-.24-.242-.279-.628-.466-.923-.9-1.446-3.658-.714-4.785.028-1.675,1.1-4.009,3.424-6.176,2.9-.1.245-.2.5-.279.752,2.209.683,4.6-1.722,6.332-2.859,1.117-.738,3.881-1.471,4.785-.025.179.295.226.678.463.92.394.405,1.033.2,1.578.207,1.267.022,2.192,1.344,2.5,2.653s.207,2.694.522,4A2.217,2.217,0,0,1,914.361,266.748Z" transform="translate(-898.07 -255.635)"/>
        <path id="Path_506" data-name="Path 506" d="M962.648,281.792c-.223.645-.812,1.24-1.449,1.1s-.947-.846-1.421-1.295a1.975,1.975,0,0,0-2.234-.306,2.214,2.214,0,0,0-1.1,1.972,2.144,2.144,0,0,1,.974-1.179,1.955,1.955,0,0,1,2.234.309c.478.446.8,1.163,1.424,1.292s1.223-.46,1.449-1.1a5.483,5.483,0,0,0,.226-1.171A3,3,0,0,1,962.648,281.792Z" transform="translate(-940.148 -272.206)"/>
        <path id="Path_507" data-name="Path 507" d="M981.216,261.155a25.648,25.648,0,0,0-1.586,3.523c-.056.256-.089.518-.12.782a25.385,25.385,0,0,1,1.583-3.512,6.213,6.213,0,0,0,.383-1.689A6.157,6.157,0,0,1,981.216,261.155Z" transform="translate(-956.772 -257.122)"/>
      </g>
      <ellipse id="Ellipse_42" data-name="Ellipse 42" cx="0.101" cy="0.099" rx="0.101" ry="0.099" transform="translate(192.347 69.595)" fill="#e6e8ec"/>
      <ellipse id="Ellipse_43" data-name="Ellipse 43" cx="24.106" cy="2.427" rx="24.106" ry="2.427" transform="translate(204.006 192.943)" fill="#6c63ff" opacity="0.1"/>
      <path id="Path_508" data-name="Path 508" d="M393.582,244.478,320.57,291.216l47.648,84.792a3.32,3.32,0,0,0,2.122,1.6L413.511,388a3.342,3.342,0,0,0,3.78-1.766l21.414-43.9,23.469-30.956-55.694-65.013A9.963,9.963,0,0,0,393.582,244.478Z" transform="translate(-254.112 -208.304)" fill="#dcdfed"/>
      <path id="Path_509" data-name="Path 509" d="M464.828,312.7l-.207.275-13.748,18.135-.249.328-9.266,12.223-18.315,37.551-.514,1.05-2.585,5.3a3.342,3.342,0,0,1-3.786,1.766l-43.172-10.4a3.315,3.315,0,0,1-2.122-1.6l-4.152-7.374-.746-1.328L336,315.276l-.257-.454L323.22,292.535l1.513-.97,11.472-7.342.265-.171,24.159-15.465,1.524-.975L396.23,245.8a9.96,9.96,0,0,1,12.9,1.884l25.407,29.669,1.117,1.322L454.1,300.2l.1.118,9.272,10.821,1.167,1.364Z" transform="translate(-256.022 -209.257)" opacity="0.1"/>
      <path id="Path_510" data-name="Path 510" d="M482.756,360.485l-2.25,15.427-.679,4.656-.388,9.917-.031.774-2.019,51.818a3.273,3.273,0,0,1-1.3,2.473,3.366,3.366,0,0,1-2.755.6l-21.76-4.793-.235-.052-55.808-12.289-1.025-.226-30.681-6.76.7-46.589.022-1.556.212-14.1L365,344.221l24.159-15.465,1.524-.975c22.408,2.267,52.21,6.628,72.4,9.738l1.117,1.322,18.427,21.526Z" transform="translate(-285.294 -269.791)" opacity="0.1"/>
      <path id="Path_511" data-name="Path 511" d="M484.584,341.107l-2.65,18.182-2.429,16.65-.678,4.645-.388,9.917-2.049,52.592a3.273,3.273,0,0,1-1.3,2.473,3.366,3.366,0,0,1-2.755.6l-22-4.846-55.808-12.289-31.706-6.986.726-48.145.212-14.1.248-16.5.254-16.967c5.243-.245,13.87.309,24.17,1.331,23.062,2.284,54.5,6.9,75.053,10.085C476.08,339.7,484.584,341.107,484.584,341.107Z" transform="translate(-284.574 -268.704)" fill="#819eff"/>
      <path id="Path_512" data-name="Path 512" d="M460.854,434.3l-11.8,5.711-60.231,29.146L333.314,423.9l-11.221-9.165-1.513.97L333.1,437.986l-.726,48.145,31.706,6.986,4.143,7.375a3.314,3.314,0,0,0,2.122,1.6l43.172,10.391a3.342,3.342,0,0,0,3.778-1.766l2.585-5.3,22,4.846a3.366,3.366,0,0,0,2.755-.6,3.273,3.273,0,0,0,1.3-2.473l2.049-52.592,14-18.457.039-.466Z" transform="translate(-254.12 -332.788)" opacity="0.1"/>
      <path id="Path_513" data-name="Path 513" d="M307.7,418.25l-4.978,84.112a3.291,3.291,0,0,0,2.6,3.4l132.2,28.967a3.364,3.364,0,0,0,2.691-.567,3.273,3.273,0,0,0,1.338-2.372l7.748-93.373-73.359,35.5Z" transform="translate(-241.246 -335.338)" fill="#dcdfed"/>
      <path id="Path_514" data-name="Path 514" d="M305.291,618.712,373.973,576.9a5.09,5.09,0,0,1,6.422.992l61.473,70.74c.223.253.332.072,0,0L305.291,618.712C304.9,618.627,304.95,618.913,305.291,618.712Z" transform="translate(-242.901 -449.763)" opacity="0.1"/>
      <path id="Path_515" data-name="Path 515" d="M306.84,621.772l67.973-40.515a5.381,5.381,0,0,1,6.779,1.052l60.918,69.126a.717.717,0,0,1,.076.844.738.738,0,0,1-.788.338L307.061,623.1a.726.726,0,0,1-.567-.589A.718.718,0,0,1,306.84,621.772Z" transform="translate(-243.959 -452.892)" fill="#e3e5f1"/>
    </g>
  </g>
</svg>
