<svg xmlns="http://www.w3.org/2000/svg" xmlns:xlink="http://www.w3.org/1999/xlink" width="330" height="166" viewBox="0 0 330 166">
  <defs>
    <linearGradient id="linear-gradient" x1="0.5" x2="0.854" y2="0.947" gradientUnits="objectBoundingBox">
      <stop offset="0" stop-color="#fffdcc"/>
      <stop offset="1" stop-color="#f1d64e"/>
    </linearGradient>
    <clipPath id="clip-path">
      <path id="Rectangle_8" data-name="Rectangle 8" d="M20,0H310a20,20,0,0,1,20,20V166a0,0,0,0,1,0,0H0a0,0,0,0,1,0,0V20A20,20,0,0,1,20,0Z" transform="translate(-0.001 0)" opacity="0.1" fill="url(#linear-gradient)"/>
    </clipPath>
    <filter id="Path_1107" x="124.539" y="61.586" width="54.39" height="86.347" filterUnits="userSpaceOnUse">
      <feOffset dy="3" input="SourceAlpha"/>
      <feGaussianBlur stdDeviation="3" result="blur"/>
      <feFlood flood-color="#a4a4a4" flood-opacity="0.161"/>
      <feComposite operator="in" in2="blur"/>
      <feComposite in="SourceGraphic"/>
    </filter>
  </defs>
  <g id="Mask_Group_19" data-name="Mask Group 19" transform="translate(0.001 0)" clip-path="url(#clip-path)">
    <g id="Group_62" data-name="Group 62" transform="translate(-6.62 -51)">
      <path id="blob_7_" data-name="blob (7)" d="M235.089,20.081c30.261,20.95,56.795,60.711,48.681,91.708-7.894,31.211-50.655,53.656-91,67.552s-78.5,19.239-116.44,7.7S.673,147.275.016,117.988c-.877-29.073,35.3-59,64.47-79.523C93.431,17.943,115.359,6.827,143.209,2.124S205.047-.655,235.089,20.081Z" transform="translate(99.576 0) rotate(31)" fill="#7d7d7d" opacity="0.09"/>
      <g id="Group_61" data-name="Group 61" transform="translate(140.158 108.744)">
        <path id="Path_1106" data-name="Path 1106" d="M636.931,312.47a36.387,36.387,0,0,0-25.73-62.117V286.74Z" transform="translate(-574.811 -240.51)" fill="#3f3d56"/>
        <g transform="matrix(1, 0, 0, 1, -133.54, -57.74)" filter="url(#Path_1107)">
          <path id="Path_1107-2" data-name="Path 1107" d="M516.958,250.353A36.392,36.392,0,0,0,499.551,318.7l17.407-31.96Z" transform="translate(-347.03 -182.77)" fill="#fff695"/>
        </g>
        <path id="Path_1108" data-name="Path 1108" d="M630.349,554.863l.46,3.836,2.609,1.228,2.915-.921,1.995.921.614-3.529-3.529-3.99Z" transform="translate(-539.18 -417.469)" fill="#ffb9b9"/>
        <path id="Path_1109" data-name="Path 1109" d="M783.637,712.252s-2.379-2.774-2.417-1.387-5.255,6.144-5.255,6.144-8.133,2.455-1.841,3.99,20.1-2.916,20.563-3.836-3.836-7.98-4.3-7.366A7.959,7.959,0,0,1,783.637,712.252Z" transform="translate(-690.626 -571.942)" fill="#2f2e41"/>
        <path id="Path_1110" data-name="Path 1110" d="M774.451,555.1s-.921,7.212,0,8.286a3.2,3.2,0,0,1,0,3.529c-.46.307.614,1.535,1.381,2.148s1.841,3.376,1.841,3.376,4.143,10.9,4.143,11.969,1.842,3.376,1.688,4.143,1.074,3.223.921,3.683,1.995,4.6,1.381,5.218-9.054,2.762-8.593,1.381.767-3.069.46-3.069-1.688-1.688-1.381-2.3-9.207-16.726-9.207-16.726Z" transform="translate(-687.271 -460.366)" fill="#2f2e41"/>
        <path id="Path_1111" data-name="Path 1111" d="M783.637,712.252s-2.379-2.774-2.417-1.387-5.255,6.144-5.255,6.144-8.133,2.455-1.841,3.99,20.1-2.916,20.563-3.836-3.836-7.98-4.3-7.366A7.959,7.959,0,0,1,783.637,712.252Z" transform="translate(-690.626 -571.942)" opacity="0.1"/>
        <path id="Path_1112" data-name="Path 1112" d="M774.451,555.1s-.921,7.212,0,8.286a3.2,3.2,0,0,1,0,3.529c-.46.307.614,1.535,1.381,2.148s1.841,3.376,1.841,3.376,4.143,10.9,4.143,11.969,1.842,3.376,1.688,4.143,1.074,3.223.921,3.683,1.995,4.6,1.381,5.218-9.054,2.762-8.593,1.381.767-3.069.46-3.069-1.688-1.688-1.381-2.3-9.207-16.726-9.207-16.726Z" transform="translate(-687.271 -460.366)" opacity="0.1"/>
        <path id="Path_1113" data-name="Path 1113" d="M555.466,554.384l-1.688,4.3.767,5.985,4.911-.307,2.762-2.455v-5.217Z" transform="translate(-483.939 -418.894)" fill="#ffb9b9"/>
        <path id="Path_1114" data-name="Path 1114" d="M698.758,709.1s-1.688-5.524-2.609-3.99a24.3,24.3,0,0,0-1.535,3.069s-7.519,4.91-9.514,4.91-3.836,2.455-1.228,3.376,22.558,2.148,22.864,0-.307-9.054-1.228-8.286S699.832,710.637,698.758,709.1Z" transform="translate(-626.31 -568.396)" fill="#2f2e41"/>
        <path id="Path_1115" data-name="Path 1115" d="M715.878,476.1s-3.223,5.524-3.529,6.138-1.995,4.6,1.228,6.138,5.985-11.2,5.985-11.2Z" transform="translate(-647.267 -403.371)" fill="#ffb9b9"/>
        <path id="Path_1116" data-name="Path 1116" d="M728.36,444.148s-4.911,9.514-3.99,9.821,4.6,2.148,4.6,2.148l1.688-9.668Z" transform="translate(-656.373 -380.321)" fill="#575a88"/>
        <path id="Path_1117" data-name="Path 1117" d="M728.36,444.148s-4.911,9.514-3.99,9.821,4.6,2.148,4.6,2.148l1.688-9.668Z" transform="translate(-656.373 -380.321)" opacity="0.1"/>
        <path id="Path_1118" data-name="Path 1118" d="M735.79,472.6s-1.074,7.98-.614,9.667-.307,27.008.307,28.389,1.074,10.281,1.074,11.356-1.228,9.821-1.535,10.588-1.228,3.376-.767,4.6,6.752,4.3,7.673,3.222.153-4.45.921-4.6,1.688-7.366,1.688-7.366l5.064-28.235s9.514-23.632,7.366-25.934S735.79,472.6,735.79,472.6Z" transform="translate(-663.496 -400.794)" fill="#2f2e41"/>
        <circle id="Ellipse_125" data-name="Ellipse 125" cx="7.519" cy="7.519" r="7.519" transform="translate(70.453 2.292)" fill="#ffb9b9"/>
        <path id="Path_1119" data-name="Path 1119" d="M750.559,260.514s2.455,6.445,2.148,7.826,7.212-2.455,7.212-2.455-.46-7.519,0-9.514S750.559,260.514,750.559,260.514Z" transform="translate(-675.349 -244.564)" fill="#ffb9b9"/>
        <path id="Path_1120" data-name="Path 1120" d="M759.837,320.224c-.034,1.287-.055,2.055-.055,2.055s.46,7.059-.307,9.361-.767,3.99-1.228,5.524c-.135.447-1.972.686-4.551.792-2.366.1-5.357.083-8.228.017-4.754-.111-9.186-.365-9.932-.5-1.688-.307.307-2.916-.307-4.3s1.074-19.028,1.074-19.028-.153-9.974.614-13.811a43.344,43.344,0,0,1,4.3-10.742c.614-.767.153-1.228-1.228-2.148s0-4.45,0-4.45c2.609-2.148,9.207-2.455,9.207-2.455s10.128,10.435,10.742,12.583c.371,1.3.238,11.669.075,19.676C759.948,315.811,759.882,318.49,759.837,320.224Z" transform="translate(-664.009 -262.288)" fill="#575a88"/>
        <path id="Path_1121" data-name="Path 1121" d="M770.339,491.523s-5.831,11.969-1.228,12.737,6.905-10.9,6.905-10.9Z" transform="translate(-687.456 -414.499)" fill="#ffb9b9"/>
        <path id="Path_1122" data-name="Path 1122" d="M735.121,221.02c-.266-1.29.72-2.5,1.758-3.305a12.846,12.846,0,0,1,7.9-2.695,8.61,8.61,0,0,1,5.61,1.861,7.776,7.776,0,0,1,2.434,6.344,12.614,12.614,0,0,1-2.542,6.467c-.66.913-1.719,1.859-2.773,1.461a2.577,2.577,0,0,1-1.026-.866,15.906,15.906,0,0,1-1.758-2.7,10.755,10.755,0,0,0-1.239-2.133,2.516,2.516,0,0,0-2.155-.987c-.675.093-1.336.568-1.979.345-.716-.248-.889-1.163-.946-1.919a13.031,13.031,0,0,0-.248-2.57C737.91,220.456,735.245,221.638,735.121,221.02Z" transform="translate(-664.18 -215.02)" fill="#2f2e41"/>
        <path id="Path_1123" data-name="Path 1123" d="M783.995,350.7c-1.719,6.2-5.661,16.643-5.886,17.093-.057.115-.146.341-.255.638-2.366.1-5.357.083-8.228.017a17.256,17.256,0,0,0,.964-2.65c0-.767,3.683-20.563,3.683-20.563s-2.915-8.747-5.524-16.113,7.749-5.908,7.749-5.908c5.524-1.381,6.522,1,6.522,1s.486,12.936,1.149,19.062a12.587,12.587,0,0,0,.539,3.035C784.952,346.761,784.621,348.452,783.995,350.7Z" transform="translate(-688.167 -292.766)" opacity="0.1"/>
        <path id="Path_1124" data-name="Path 1124" d="M776.646,305.948s-7.059,2.916-4.45,10.281,5.525,16.112,5.525,16.112-3.683,19.8-3.683,20.563-2.3,4.91-1.381,5.678,7.059,2.3,7.212,1.535a51.848,51.848,0,0,1,1.688-5.217c.307-.614,7.519-19.8,6.6-21.483s-1.688-22.1-1.688-22.1S782.171,304.567,776.646,305.948Z" transform="translate(-690.541 -280.485)" fill="#575a88"/>
        <path id="Path_1125" data-name="Path 1125" d="M621.85,448.428l-27.123-25.451-16.014,33.075a36.221,36.221,0,0,0,17.407,4.427C606.168,460.478,615.265,455.013,621.85,448.428Z" transform="translate(-551.373 -365.047)" fill="#575a89"/>
        <path id="Path_1126" data-name="Path 1126" d="M621.85,448.428l-27.123-25.451-16.014,33.075a36.221,36.221,0,0,0,17.407,4.427C606.168,460.478,615.265,455.013,621.85,448.428Z" transform="translate(-551.373 -365.047)" opacity="0.1"/>
        <path id="Path_1127" data-name="Path 1127" d="M613.85,454.706l-25.73-25.729-17.407,31.96A36.406,36.406,0,0,0,613.85,454.706Z" transform="translate(-545.602 -369.376)" fill="#575a89"/>
      </g>
    </g>
  </g>
</svg>
