<svg xmlns="http://www.w3.org/2000/svg" xmlns:xlink="http://www.w3.org/1999/xlink" width="341" height="134" viewBox="0 0 341 134">
  <defs>
    <linearGradient id="linear-gradient" x1="0.5" x2="0.5" y2="1" gradientUnits="objectBoundingBox">
      <stop offset="0" stop-color="#94a7e8"/>
      <stop offset="1" stop-color="#256af3"/>
    </linearGradient>
    <clipPath id="clip-path">
      <path id="Rectangle_80" data-name="Rectangle 80" d="M20,0H321a20,20,0,0,1,20,20V134a0,0,0,0,1,0,0H0a0,0,0,0,1,0,0V20A20,20,0,0,1,20,0Z" opacity="0.1" fill="url(#linear-gradient)"/>
    </clipPath>
    <linearGradient id="linear-gradient-2" x1="0.5" y1="1" x2="0.5" gradientUnits="objectBoundingBox">
      <stop offset="0" stop-color="gray" stop-opacity="0.251"/>
      <stop offset="0.54" stop-color="gray" stop-opacity="0.122"/>
      <stop offset="1" stop-color="gray" stop-opacity="0.102"/>
    </linearGradient>
  </defs>
  <g id="Group_83" data-name="Group 83" transform="translate(-0.062 -0.443)">
    <g id="Mask_Group_11" data-name="Mask Group 11" transform="translate(0.062 0.443)" clip-path="url(#clip-path)">
      <g id="Group_37" data-name="Group 37" transform="translate(13.923 -6.167)">
        <path id="Path_421" data-name="Path 421" d="M193.93,58.294c17.045-.484,33.279-5.006,48.77-9.954S273.568,37.919,290.2,35.3c10.7-1.686,22.936-1.924,31.557,2.788,8.3,4.535,10.977,12.365,12.418,19.632,1.087,5.465,1.724,11.219-1.249,16.334-2.055,3.549-5.726,6.537-8.259,9.939-8.812,11.84-2.584,26.438,6.967,38,4.48,5.422,9.677,10.6,13.135,16.367s5.051,12.39,2.032,18.271c-3,5.83-10.142,10.218-17.883,13.3-15.72,6.261-34.245,8.053-52.307,9.069-39.984,2.246-80.183,1.267-120.275.3-14.836-.36-29.739-.725-44.336-2.611-8.105-1.047-16.472-2.707-22.35-6.717-7.471-5.09-9.32-13.711-4.316-20.093,8.4-10.707,31.6-13.366,37.479-24.856,3.232-6.324-.087-13.371-4.781-19.236-10.07-12.583-26.951-23.622-27.84-38-.609-9.886,7.5-19.771,20.051-24.445,13.151-4.9,31.388-4.284,41.1,3.828C161.324,55.511,178.881,58.732,193.93,58.294Z" transform="translate(-82.538 -34.194)" fill="#819eff" opacity="0.1"/>
        <ellipse id="Ellipse_41" data-name="Ellipse 41" cx="74.693" cy="7.432" rx="74.693" ry="7.432" transform="translate(79.308 174.873)" fill="#6c63ff" opacity="0.1"/>
        <path id="Path_445" data-name="Path 445" d="M771.6,266.558c-.154-.416,1-2.72,1-2.834s1.195-1.4,1.195-2.117,1.583-2.266,1.583-2.266,2.119-.869,2.351-2.758,2.541-1.929,2.546-1.929h0s0-.172-.016-.433a6.25,6.25,0,0,1,.285-2.21,2.266,2.266,0,0,1,1.313-1.1,4.8,4.8,0,0,1,.694-1.926,2.15,2.15,0,0,0,.542-2.038c-.231-.717.308-2.535,1.428-2.788s2.389-.679,2.389-.679.126.023.308.048l.154-.048a6.975,6.975,0,0,0,.812.1,1,1,0,0,0,.653-.213,13.478,13.478,0,0,1,4.09-1.209,9.745,9.745,0,0,0,2.237-.76l1.654-1.247a10.776,10.776,0,0,0,1.451-1.975l.015-.028h0a6.8,6.8,0,0,0,.349-.994h0a8.988,8.988,0,0,1-1.433-1.944c-.041-.073-.077-.15-.113-.223a.933.933,0,0,1-.257-.041.326.326,0,0,1-.1-.038,1.665,1.665,0,0,1-.819-.966h0a2.415,2.415,0,0,1-.075-.253.15.15,0,0,0-.018-.086.752.752,0,0,1-.036-.172c-.01-.058-.013-.066-.018-.1s-.018-.114-.026-.172a.364.364,0,0,1,0-.094,1.492,1.492,0,0,0-.028-.215h0a7.533,7.533,0,0,0-.121-.8h0a14.716,14.716,0,0,0-1.3-2.839h0c-.064-.134-.123-.274-.177-.413s-.108-.3-.152-.459l-.039-.142c-.028-.112-.054-.226-.077-.34a1.047,1.047,0,0,0-.028-.152c-.026-.157-.049-.314-.062-.474a5.8,5.8,0,0,1,.383-2.664c.29-.71.719-1.349,1.012-2.058.445-1.075.56-2.281,1.1-3.316a4.025,4.025,0,0,1,4.8-1.931c.84.307,1.567.9,2.417,1.174a8.141,8.141,0,0,0,3.537-.073,4.438,4.438,0,0,1,3.432.586c1.092.875,1.392,2.52,2.417,3.48.429.4.966.662,1.421,1.034a2.283,2.283,0,0,1,.712.961.33.33,0,0,0,.026.081c.008.028.018.063.026.1s.015.076.021.114a.4.4,0,0,1,0,.079,1.339,1.339,0,0,1,0,.2h0a1.657,1.657,0,0,1-.033.19v.053a1.317,1.317,0,0,1-.049.157.121.121,0,0,1,0,.03c-.021.058-.044.114-.067.172l-.039.086-.031.071a4.366,4.366,0,0,0-.357.877.979.979,0,0,0,.033.58,1.777,1.777,0,0,0,.429.553,7.845,7.845,0,0,1,1.739,2.75c.044.117.087.233.126.355h0l-.054.013a2.21,2.21,0,0,1-.336.074c-.064,0-.129.015-.2.02a3.055,3.055,0,0,1-.786-.061c-.064-.013-.131-.028-.2-.046a4.888,4.888,0,0,1-.771-.281v.36a8.98,8.98,0,0,1-5.058,8.038,2.361,2.361,0,0,1-.033.253c-.01.089-.018.137-.026.205l.1-.1s.7-.34,1.351.641a4.375,4.375,0,0,0,1.888,1.437s7.018,1.1,7.288,2l3.278.188s1.159.152,1.284,2.535.732,2.608.732,2.608,1.349,2.342,1.233,3.549a1.985,1.985,0,0,0,1.027,1.815l.154,2.152a1.479,1.479,0,0,1,1.621,1.285,5,5,0,0,0,.964,2.155s2.122,1.739,2.237,3.212l1.31.793s3.047-.679,3.741-1.888l.213-.2a.2.2,0,0,0,.018-.03.09.09,0,0,1,0,.015,9.588,9.588,0,0,1,1.284-1.11.912.912,0,0,0-.062.608l.226-.254.606-.664s4.925-4.563,7.817-4.912h0c.039-.073.224-.791.717-.342a3.931,3.931,0,0,1,.028,5.83l-4.611,4.251-.118.086-.992,1.267c.167.4.308.778.424,1.128a.048.048,0,0,0,.013.033c.023.076.049.147.072.218l.023.076c.021.071.044.142.064.208s.023.084.036.124,0,.048.021.071c.108.38.18.672.216.834l.257-.079-.257.106v.04l.015.079-.236.1c-1.351.581-8.095,3.5-8.442,3.942a4.934,4.934,0,0,1-5.243.717,5.526,5.526,0,0,1-2.826-3.062,31.711,31.711,0,0,1-2.312-3.513c-.077-.454-1.814-.983-1.814-.983s-.154,5.07.732,6.915,2.546,10.053,2.546,10.053a1.241,1.241,0,0,0-.329-.02c.062.3.1.474.1.474a1.161,1.161,0,0,0-.408,0c.123.933.832,5.262.832,5.262a10.689,10.689,0,0,0,.617,2.644c.385.679.424,4.233.424,4.233l.616,2.568a4.907,4.907,0,0,1-.234.444h0a6.6,6.6,0,0,1-1.775,2.264,4.585,4.585,0,0,0,.311,1.176,4.026,4.026,0,0,1,.308,1.812,22.96,22.96,0,0,1,.578,3.741,13.635,13.635,0,0,0,.424,2.872l.717,6.555a61.115,61.115,0,0,1,.231,7.257,13.642,13.642,0,0,0,.157,3.663s-.462,4.5-.347,4.989a9.14,9.14,0,0,1,.347,3.779,20.244,20.244,0,0,0-.157,4.383s-.231,4.231-.5,5.592a9.577,9.577,0,0,0,.077,3.1,22.535,22.535,0,0,0,.385,2.907c.128,0,1.117,2-.925,3.969s-.771,1.66-.771,1.66,1.618-.793,1.428.831c-.185,1.546-.439,1.143-.463,1.1l.385,1.242-.257.038.224.253a5.925,5.925,0,0,0,.771.8,1.653,1.653,0,0,1,.514,1.1,29.937,29.937,0,0,0,5.513,4.611,16.541,16.541,0,0,1,3.134,2.076c.475.507.4.928-.588,1.25a15.313,15.313,0,0,1-8.367.152,9.793,9.793,0,0,1-4.087-2.608,5.938,5.938,0,0,0-3.281-.53c-1.621.3-4.858-1.774-4.858-1.774l.059-.537.172-1.544a1.2,1.2,0,0,0,.27-.943,4.836,4.836,0,0,1,.136-1.359c.026-.15.057-.3.085-.439l-.3-.053s.383-1.929-.311-2.307-.5-5.323-.5-5.323a6.034,6.034,0,0,1,1.349-1.321c.465-.188.039-2.535-.041-2.836s-.694-6.16-.694-6.16a7.818,7.818,0,0,0-.077-2.644c-.308-.793.37-3.835.37-3.835a.694.694,0,0,0-.2-.831c-.427-.454-.257-4.5-.257-4.5s.036-2.04.036-2.57a9.227,9.227,0,0,0-.886-3.1c-.424-.641-.154-2.646-.154-2.646h0l-.023-.15a1.491,1.491,0,0,0-.036-.215l-.033-.2a28.211,28.211,0,0,0-.763-3.3c-.514-1.587-1.079-4.383-1.079-4.383l-3.6-9.227-.041-.109a14.361,14.361,0,0,0-1.657,5.83,33.032,33.032,0,0,0-.308,4.271,49.882,49.882,0,0,1-.342,5.153s-.5,6.121-.5,6.388a36.714,36.714,0,0,1-1,5.706c-.388.717.388,2.91.619,3.136s-.077,5.782-.077,5.782.578,4.383.694,5.29.578,4.385.193,5.744-.231,1.549-.231,1.549-1.39,1.4-.578,1.521a2.117,2.117,0,0,1,1.4,1.033,2.067,2.067,0,0,1,.137,1.723,35.028,35.028,0,0,1-1.7,4.056s-.239-.053-.637-.132v.449l-.046,2.251a14.146,14.146,0,0,0-.116,2.646c.113.36.257,2.053.342,2.938.028.322.044.537.044.537s0,2-4.28,1.4-5.051-2.266-5.051-2.266a1,1,0,0,0-.031-.208c-.064-.383-.2-1.194-.316-1.645-.154-.606,1.233-3.326,1.233-3.326a6.822,6.822,0,0,1,.619-2.266,1.993,1.993,0,0,0,.308-.793c.036-.152.067-.312.092-.466a2.882,2.882,0,0,0-.285.051s.231-1.323-.658-1.739a1.239,1.239,0,0,1-.54-1.663,12.559,12.559,0,0,0-.347-2.494,1.218,1.218,0,0,0-.308-1.207c-.542-.532-.963-4.233-.963-4.233l-.077-14.283a13.5,13.5,0,0,1,.036-3.549c.308-1.014.619-2.983.2-3.513s-.039-2.983-.039-2.983,0-5.178-.581-6.461-.385-9.409-.385-9.409l-.152-5.323s-1.261-1.176-.963-7.308a10.379,10.379,0,0,0-3.083.051c-.424.342-3.162,2.079-4.781.983a21.563,21.563,0,0,1-1.927-1.473l.678-11.33c-.424.631-.681,1.052-.681,1.052,0-1.587-4.55-6.727-4.55-6.727s-4.241-5.4-5.166-6.045-2.739-4.043-2.739-4.043a16.3,16.3,0,0,0-.927-1.888C770.367,268.789,771.756,266.974,771.6,266.558Zm9.952,3.964c1.156.114,3.6,2.722,3.625,3.3a2.286,2.286,0,0,0,.514,1.014c.018-.228.039-.461.056-.7a77.394,77.394,0,0,0,.434-7.8,22.316,22.316,0,0,1-.154-3.739h0l-.041-.058A19.09,19.09,0,0,1,782.8,267.7s-.424,1.209-.925,1.247S781.555,270.522,781.555,270.522Z" transform="translate(-760.632 -191.761)" fill="url(#linear-gradient-2)"/>
        <path id="Path_446" data-name="Path 446" d="M804.575,403.073s-1.405-7.275-5.929-7.313l-3.306,6.712,2.2,1.5S802.333,404.122,804.575,403.073Z" transform="translate(-721.828 -325.171)" fill="#65617d"/>
        <path id="Path_447" data-name="Path 447" d="M795.34,402.494l2.2,1.5a26.323,26.323,0,0,0,5.78-.479,6.983,6.983,0,0,0,1.251-.421.409.409,0,0,0-.026-.117v-.028a16.252,16.252,0,0,0-.855-2.672c-.141-.327-.3-.664-.468-1a6.81,6.81,0,0,0-2.867-3.1,3.939,3.939,0,0,0-1.508-.388h-.2l-.072.15-1.118,2.266Z" transform="translate(-721.828 -325.193)" opacity="0.1"/>
        <path id="Path_448" data-name="Path 448" d="M974.763,480.183s-4.753-.449-5.169-.112-3.116,2.061-4.714.973-.532-4.874-.532-5.024.151-5.513.151-5.513l2.852-3.787,3.571-6.636,7.3-.715-.19,10.54.038,5.4Z" transform="translate(-938.799 -372.657)" fill="#65617d"/>
        <path id="Path_449" data-name="Path 449" d="M974.763,480.183s-4.753-.449-5.169-.112-3.116,2.061-4.714.973-.532-4.874-.532-5.024.151-5.513.151-5.513l2.852-3.787,3.571-6.636,7.3-.715-.19,10.54.038,5.4Z" transform="translate(-938.799 -372.657)" opacity="0.1"/>
        <path id="Path_450" data-name="Path 450" d="M772.56,374.677s.38,4.575,3.268,4.649c0,0,.82-.487,1.922-1.3,2.538-1.873,6.564-5.475,5.451-8.826-1.6-4.8-9.349,4.056-9.349,4.056l-.593.659Z" transform="translate(-694.791 -304.28)" fill="#fbbebe"/>
        <path id="Path_451" data-name="Path 451" d="M793.57,392.76s.38,4.575,3.268,4.649c0,0,.819-.487,1.922-1.3L799,395.8a3.838,3.838,0,0,1-1.583.421,2.142,2.142,0,0,1-2.055-1.285,16.007,16.007,0,0,1-.8-1.815,5.247,5.247,0,0,1-.3-1.12Z" transform="translate(-715.801 -322.364)" opacity="0.1"/>
        <path id="Path_452" data-name="Path 452" d="M797.882,399.9l.65-.826,2.189-2.788,1.115-1.422a3.8,3.8,0,0,1-1.582.421A2.121,2.121,0,0,1,798.2,394a16.3,16.3,0,0,1-.8-1.817c-.36-1.014-.355-1.521-.226-1.706a10.678,10.678,0,0,0-1.256,1.1l-.015.015-.211.2-.077.152-1.1,2.172v.091C794.4,394.9,794.031,399.275,797.882,399.9Z" transform="translate(-718.859 -321.206)" fill="#e7effd"/>
        <path id="Path_453" data-name="Path 453" d="M816.111,790.914s3.193,2.063,4.789,1.774a5.914,5.914,0,0,1,3.232.527,9.642,9.642,0,0,0,4.031,2.588,14.927,14.927,0,0,0,8.244-.152c.971-.319,1.051-.73.583-1.24a16.255,16.255,0,0,0-3.083-2.061,29.7,29.7,0,0,1-5.433-4.563,1.594,1.594,0,0,0-.5-1.085,5.879,5.879,0,0,1-.771-.791c-.409-.477-.791-.973-.791-.973l-9.392.269s-.159.667-.285,1.349a4.825,4.825,0,0,0-.131,1.351,1.21,1.21,0,0,1-.257.935l-.17,1.521Z" transform="translate(-759.855 -615.702)" fill="#65617d"/>
        <path id="Path_454" data-name="Path 454" d="M937.822,795.526c.113.449.257,1.252.311,1.63l.033.208s.771,1.65,4.976,2.251,4.218-1.389,4.218-1.389-.015-.213-.041-.535a28.773,28.773,0,0,0-.339-2.915,13.3,13.3,0,0,1,.116-2.626l.044-2.233.033-1.551-7-.715a12.354,12.354,0,0,1-.226,1.536,1.951,1.951,0,0,1-.306.788,6.846,6.846,0,0,0-.606,2.251S937.67,794.925,937.822,795.526Z" transform="translate(-901.213 -617.725)" fill="#65617d"/>
        <path id="Path_455" data-name="Path 455" d="M855.4,785.112s-.159.667-.285,1.349c1.015.185,5.449.943,6.556.413a17.563,17.563,0,0,1,3.954-.938l-.044-.152c-.409-.477-.791-.973-.791-.973Z" transform="translate(-798.227 -615.605)" opacity="0.1"/>
        <path id="Path_456" data-name="Path 456" d="M938.52,789.186c1.773-.3,5.652.421,7.193.73l.033-1.551-7-.715A12.363,12.363,0,0,1,938.52,789.186Z" transform="translate(-899.782 -617.725)" opacity="0.1"/>
        <path id="Path_457" data-name="Path 457" d="M853.438,502.514l.152,5.288s-.19,8.063.38,9.338.57,6.413.57,6.413-.38,2.436.038,2.961.113,2.474-.19,3.488a13.591,13.591,0,0,0-.039,3.526l.077,14.175s.416,3.673.95,4.2a1.218,1.218,0,0,1,.3,1.2,12.628,12.628,0,0,1,.342,2.476,1.234,1.234,0,0,0,.532,1.648c.873.411.647,1.726.647,1.726,2.089-.489,8.018.826,8.018.826a34.9,34.9,0,0,0,1.672-4.015,2.051,2.051,0,0,0-.133-1.707,2.1,2.1,0,0,0-1.388-1.028c-.8-.114.57-1.5.57-1.5s-.152-.187.229-1.536-.074-4.816-.19-5.7l-.683-5.25s.3-5.511.075-5.736-.987-2.4-.609-3.113a37.286,37.286,0,0,0,.992-5.663c0-.264.491-6.337.491-6.337a49.658,49.658,0,0,0,.342-5.138,32.6,32.6,0,0,1,.306-4.236,14.23,14.23,0,0,1,1.634-5.777l.041.109,3.522,9.156s.57,2.773,1.064,4.347a28.111,28.111,0,0,1,.742,3.257l.034.2a1.255,1.255,0,0,0,.033.21l.023.152h0a6.042,6.042,0,0,0,.154,2.626,9.394,9.394,0,0,1,.873,3.075c0,.525-.038,2.55-.038,2.55s-.152,4.013.257,4.464a.712.712,0,0,1,.193.824s-.683,3.042-.38,3.825a7.817,7.817,0,0,1,.074,2.623s.609,5.815.683,6.114.5,2.626.039,2.814a6.014,6.014,0,0,0-1.328,1.31s-.193,4.915.493,5.288.306,2.281.306,2.281,5.508,1.049,6.761.449a17.536,17.536,0,0,1,3.954-.938l-.378-1.232c.023.043.275.444.455-1.092.188-1.612-1.408-.826-1.408-.826s-1.254.3.771-1.648,1.028-3.939.912-3.939a24.651,24.651,0,0,1-.383-2.885,9.472,9.472,0,0,1-.075-3.077c.267-1.351.493-5.551.493-5.551a20.158,20.158,0,0,1,.152-4.347,9.114,9.114,0,0,0-.342-3.751c-.116-.487.354-4.938.354-4.938a13.659,13.659,0,0,1-.152-3.635,60.871,60.871,0,0,0-.229-7.2l-.683-6.524a13.73,13.73,0,0,1-.419-2.852,23.015,23.015,0,0,0-.573-3.711,4.006,4.006,0,0,0-.3-1.8,13.718,13.718,0,0,1-.532-3.224l-3.651-8.251-1.8-7.275-24.13-.226s-.09.631-.236,1.774-.352,2.841-.581,4.938c-.211,1.9-.442,4.142-.665,6.634C851.9,501.09,853.438,502.514,853.438,502.514Z" transform="translate(-818.643 -387.901)" fill="#3f3d56"/>
        <path id="Path_458" data-name="Path 458" d="M923.31,292.348l5.626,5.926s7.219-2.852,6.458-3.825a5.352,5.352,0,0,1-.077-2.882c.257-2.079.837-4.469.837-4.469s-12.616-2.028-11.56.073a3.4,3.4,0,0,1,.08,2.492A9.336,9.336,0,0,1,923.31,292.348Z" transform="translate(-886.282 -243.396)" fill="#fbbebe"/>
        <path id="Path_459" data-name="Path 459" d="M923.374,287.187c.388.76.573.842.331,1.67,1.649,1.741,3.748,3.653,6.358,3.653a9.107,9.107,0,0,0,4.026-.93c.257-2.079.838-4.469.838-4.469S922.31,285.083,923.374,287.187Z" transform="translate(-885.054 -243.405)" opacity="0.1"/>
        <path id="Path_460" data-name="Path 460" d="M907.025,248.418a9.048,9.048,0,0,0,18.095,0c0-.043,0-.086,0-.127a9.046,9.046,0,0,0-18.091.127Z" transform="translate(-871.063 -208.466)" fill="#fbbebe"/>
        <path id="Path_461" data-name="Path 461" d="M883.528,492.623c1.2,0,5.187.043,9.647.112h.054l1.472.025h.046c5.287.084,10.5-.935,12.588-.743,4.444.411-1.6-4.056-1.6-4.056a37.67,37.67,0,0,1-10.13,1.014l-1.284-.066A55.283,55.283,0,0,1,884.1,487.68C883.959,488.841,883.756,490.527,883.528,492.623Z" transform="translate(-848.874 -393.791)" opacity="0.1"/>
        <path id="Path_462" data-name="Path 462" d="M883.528,491.74c1.2,0,5.187.043,9.647.112h.054l1.472.025h.046c5.287.084,10.5-.935,12.588-.743,4.444.413-1.6-4.056-1.6-4.056a37.672,37.672,0,0,1-10.13,1.014l-1.284-.066A55.527,55.527,0,0,1,884.1,486.8C883.959,487.961,883.756,489.639,883.528,491.74Z" transform="translate(-848.874 -393.134)" fill="#5f5d7e"/>
        <path id="Path_463" data-name="Path 463" d="M897.774,316.188l6.993,3.227,5.395,41.172s-3.191-1.425-5.017-.525-7.45.076-7.45.076-4.11-.226-4.714.226-7.748-1.886-7.748-1.886-1.284-2.849-.3-3.3-.313-4.869-.313-4.869l.616-29.7,1.218-3.825,3.268-1.949,3.34,2.623,1.6.226Z" transform="translate(-850.335 -264.762)" opacity="0.1"/>
        <path id="Path_464" data-name="Path 464" d="M897.78,314.411l6.993,3.224,5.395,41.175s-3.191-1.425-5.017-.525-7.45.074-7.45.074-4.11-.223-4.714.226-7.753-1.876-7.753-1.876-1.284-2.849-.3-3.3-.308-4.882-.308-4.882l.616-29.7,1.218-3.823,3.268-1.952,3.34,2.626,1.6.226Z" transform="translate(-850.34 -263.433)" fill="#e7effd"/>
        <path id="Path_465" data-name="Path 465" d="M917.848,324.116s-2.014,2.362-1.978,2.852.116,1.65.116,1.65l1.521,3.042s.835,3.787.835,4.575,1.331,7.6,1.331,7.6l1.6,10.5,2.014,13.764-2.055,3.485-2.43-2.028-3.232-24.527-.683-4.836s-.722-8.7-.722-9.6a30.37,30.37,0,0,1,.416-3.262,3.878,3.878,0,0,0-2.546-2.788c-2.053-.537.152-.114.152-.114l1.179-.935,1.028.411S917.239,323.067,917.848,324.116Z" transform="translate(-870.293 -271.227)" opacity="0.1"/>
        <path id="Path_466" data-name="Path 466" d="M916.986,323.281s-2.017,2.362-1.978,2.849.116,1.65.116,1.65l1.518,3.042s.837,3.787.837,4.575,1.331,7.6,1.331,7.6l1.6,10.5,2.014,13.764-2.055,3.488-2.433-2.028L914.7,344.2l-.686-4.834s-.722-8.7-.722-9.6a30.373,30.373,0,0,1,.416-3.262,3.849,3.849,0,0,0-2.546-2.776c-2.052-.525.152-.112.152-.112l1.179-.938,1.028.413S916.377,322.229,916.986,323.281Z" transform="translate(-869.202 -270.615)" fill="#819eff"/>
        <path id="Path_467" data-name="Path 467" d="M924.758,309.51s.306.226.38,1.726a29.555,29.555,0,0,0,1.141,4.874s-3.954-2.7-5.929-2.4Z" transform="translate(-875.646 -260.783)" opacity="0.1"/>
        <path id="Path_468" data-name="Path 468" d="M924.758,307.74s.306.223.38,1.724a29.555,29.555,0,0,0,1.141,4.874s-3.954-2.7-5.929-2.4Z" transform="translate(-875.646 -259.462)" fill="#e7effd"/>
        <path id="Path_469" data-name="Path 469" d="M945.058,304.78l6.237,5.4A63.168,63.168,0,0,0,945.367,314c-.683.75-1.367-7.351-1.367-7.351Z" transform="translate(-906.739 -257.252)" opacity="0.1"/>
        <path id="Path_470" data-name="Path 470" d="M945.976,303l6.232,5.4a63.819,63.819,0,0,0-5.932,3.825c-.689.75-1.367-7.351-1.367-7.351Z" transform="translate(-907.885 -255.923)" fill="#e7effd"/>
        <path id="Path_471" data-name="Path 471" d="M856.757,309.344s.683-.337,1.328.639a4.308,4.308,0,0,0,1.862,1.425s6.918,1.087,7.193,1.987l3.232.188s1.141.15,1.254,2.512.722,2.588.722,2.588,1.331,2.324,1.215,3.523a1.97,1.97,0,0,0,1.028,1.8l-4.75,12.187s-.154,5.024.722,6.862,2.507,9.974,2.507,9.974-.683-.15-.645.3.812,5.364.812,5.364a10.7,10.7,0,0,0,.609,2.626c.38.677.419,4.2.419,4.2l.606,2.55s-1.444,3.189-3.648,2.738-6.194-8.96-6.194-8.96l-2.548-9.189-1.976-9.075-.57-6.149-.912-13.612-1.331-9S856.223,309.975,856.757,309.344Z" transform="translate(-807.871 -260.617)" opacity="0.1"/>
        <path id="Path_472" data-name="Path 472" d="M855.775,307.574s.686-.337,1.331.636a4.285,4.285,0,0,0,1.862,1.424s6.916,1.087,7.193,1.987l3.232.188s1.138.152,1.254,2.515.722,2.585.722,2.585,1.331,2.327,1.215,3.526a1.965,1.965,0,0,0,1.028,1.8l-4.753,12.187s-.152,5.024.722,6.862,2.51,9.977,2.51,9.977-.683-.152-.647.3.838,5.361.838,5.361a10.677,10.677,0,0,0,.609,2.626c.38.674.416,4.2.416,4.2l.609,2.55s-1.444,3.186-3.648,2.738-6.2-8.963-6.2-8.963l-2.546-9.186-1.976-9.074-.57-6.152-.912-13.612-1.331-9S855.243,308.21,855.775,307.574Z" transform="translate(-806.663 -259.295)" fill="#65617d"/>
        <path id="Path_473" data-name="Path 473" d="M794.44,401.808l2.2,1.5a26.325,26.325,0,0,0,5.78-.479l1.225-.537.257-.107-.257.079a5.079,5.079,0,0,1-3.044.107c-3.119-1.037-2.775-6.119-2.654-7.267a.944.944,0,0,1,.026-.218.071.071,0,0,0,0-.015l-.018.03a1.676,1.676,0,0,1-.144.2c-.044.048-.09.1-.139.147h0l-1.1,2.172v.091Z" transform="translate(-720.928 -324.506)" opacity="0.1"/>
        <path id="Path_474" data-name="Path 474" d="M802.312,364.4l1.066.3.152,2.137a1.457,1.457,0,0,1,1.6,1.267,5.188,5.188,0,0,0,.951,2.139s2.091,1.724,2.2,3.186l1.284.788s3-.677,3.686-1.876c0,0-1.369,9.675,5.929,7.313,0,0-8.172,3.523-8.552,4.013a4.834,4.834,0,0,1-5.169.712,5.426,5.426,0,0,1-2.775-3.042,31.7,31.7,0,0,1-2.279-3.488c-.075-.446-1.8-.976-1.8-.976l-3.268-7.8Z" transform="translate(-736.432 -301.76)" fill="#65617d"/>
        <path id="Path_475" data-name="Path 475" d="M980.3,307.95,979.2,303a5.782,5.782,0,0,1-.989,1.987l-1.634,1.24a9.594,9.594,0,0,1-2.2.748,13.162,13.162,0,0,0-4.028,1.2c-.38.413-1.9.112-1.9.112s-1.254.413-2.356.674-1.634,2.063-1.405,2.788a2.142,2.142,0,0,1-.532,2.028,4.782,4.782,0,0,0-.686,1.914,2.217,2.217,0,0,0-1.285,1.087,7.374,7.374,0,0,0-.257,2.624l5.652,7.876a22.79,22.79,0,0,0,.152,3.713c.226.672-.8,12.149-.8,12.149l-1.179,19.723a21.093,21.093,0,0,0,1.9,1.463c.342.15.683-6.973.683-7.237s8.778-12.976,8.778-12.976a11.636,11.636,0,0,0,1.179-2.281c0-.408,1.1-4.2,1.1-4.2l1.672-7.313Z" transform="translate(-941.104 -255.923)" opacity="0.1"/>
        <path id="Path_476" data-name="Path 476" d="M963.8,318.969v.431l5.652,7.858h0a22.7,22.7,0,0,0,.149,3.711,76.229,76.229,0,0,1-.427,7.744c-.19,2.39-.37,4.405-.37,4.405l-.5,8.365-.676,11.356a21.008,21.008,0,0,0,1.9,1.463c.342.15.683-6.973.683-7.237s8.781-12.973,8.781-12.973a11.784,11.784,0,0,0,1.179-2.281c0-.4,1.1-4.2,1.1-4.2l1.67-7.313-.758-22.349L981.564,303a10.844,10.844,0,0,1-1.444,1.987l-1.634,1.237a9.485,9.485,0,0,1-2.2.76,13.178,13.178,0,0,0-4.031,1.2c-.38.413-1.9.112-1.9.112s-1.254.413-2.356.674-1.636,2.063-1.408,2.788a2.137,2.137,0,0,1-.532,2.028,4.787,4.787,0,0,0-.683,1.911,2.227,2.227,0,0,0-1.284,1.09A5.687,5.687,0,0,0,963.8,318.969Z" transform="translate(-943.473 -255.923)" fill="#65617d"/>
        <path id="Path_477" data-name="Path 477" d="M865.5,760.14c-.187,0-8.169.3-8.018,1.574S865.5,760.14,865.5,760.14Z" transform="translate(-798.716 -597.188)" opacity="0.1"/>
        <path id="Path_478" data-name="Path 478" d="M868.617,768.57s-5.359.862-3.951,1.65S868.617,768.57,868.617,768.57Z" transform="translate(-803.618 -603.481)" opacity="0.1"/>
        <path id="Path_479" data-name="Path 479" d="M949.7,756.88s-8.894.761-7.563,1.726,4.485,1.123,4.624,1.161S949.7,756.88,949.7,756.88Z" transform="translate(-904.628 -594.755)" opacity="0.1"/>
        <path id="Path_480" data-name="Path 480" d="M942.9,772.12s-4.94.824-5.092,1.774S942.9,772.12,942.9,772.12Z" transform="translate(-896.757 -606.132)" opacity="0.1"/>
        <path id="Path_481" data-name="Path 481" d="M953.249,683.06s-4.521,1.049-4.789,1.774Z" transform="translate(-909.837 -539.646)" opacity="0.1"/>
        <path id="Path_482" data-name="Path 482" d="M877.346,695.78s2.356.674.074,2.028S877.346,695.78,877.346,695.78Z" transform="translate(-816.489 -549.142)" opacity="0.1"/>
        <path id="Path_483" data-name="Path 483" d="M930.321,550.933c-.257,0-4.408-1.348-5.852-.76a9.744,9.744,0,0,1-3.229.606Z" transform="translate(-879.917 -440.332)" opacity="0.1"/>
        <path id="Path_484" data-name="Path 484" d="M902.37,564.4l.041.373,3.532,9.156s.57,2.773,1.064,4.347a28.138,28.138,0,0,1,.742,3.257l-3.137-19.193Z" transform="translate(-852.497 -449.526)" opacity="0.1"/>
        <path id="Path_485" data-name="Path 485" d="M935.52,495.472l1.472.025h.046l.863-3.779-1.284-.068Z" transform="translate(-891.166 -396.755)" fill="#3f3d56"/>
        <path id="Path_486" data-name="Path 486" d="M955.024,478.047l.948.76,3.157,2.568s8.552,4.5,10.908.226c2.076-3.767-7.62-6.456-9.955-7.042-.316-.079-.5-.119-.5-.119Z" transform="translate(-928.601 -383.907)" fill="#fbbebe"/>
        <path id="Path_487" data-name="Path 487" d="M874.516,343.24s-1.672.76-2.055,1.8S874.516,343.24,874.516,343.24Z" transform="translate(-811.57 -285.963)" opacity="0.1"/>
        <path id="Path_488" data-name="Path 488" d="M845.759,387.62s2.433,2.925,1.444,4.056S845.759,387.62,845.759,387.62Z" transform="translate(-777.644 -319.094)" opacity="0.1"/>
        <path id="Path_489" data-name="Path 489" d="M1012.37,349.75s2.281.226,2.356,2.175Z" transform="translate(-987.733 -290.823)" opacity="0.1"/>
        <path id="Path_490" data-name="Path 490" d="M945.969,449.734c-.226-.226-5.472-7.876-6.679-7.2Z" transform="translate(-900.202 -360.058)" opacity="0.1"/>
        <path id="Path_491" data-name="Path 491" d="M907.03,248.418a8.778,8.778,0,0,0,1.071,4.213l.067-.013c.573-.119.871-.778,1.31-1.189a1.8,1.8,0,0,1,2.055-.284,2.053,2.053,0,0,1,1.007,1.924c.29-1.2.2-2.477.48-3.681s1.133-2.421,2.3-2.441c.514,0,1.087.18,1.451-.19.218-.223.257-.575.427-.849.832-1.328,3.368-.656,4.4.025a26.966,26.966,0,0,0,3.522,2.357,9.046,9.046,0,0,0-18.091.127Z" transform="translate(-871.069 -208.466)" opacity="0.1"/>
        <path id="Path_492" data-name="Path 492" d="M910.666,231.508c-.164.271-.208.624-.426.847-.362.373-.951.18-1.452.19-1.166.02-2.017,1.237-2.3,2.441s-.19,2.479-.48,3.68a2.048,2.048,0,0,0-1.01-1.924,1.8,1.8,0,0,0-2.055.284c-.439.411-.737,1.07-1.31,1.189s-1.125-.423-1.333-1.014a15.843,15.843,0,0,1-.329-1.868,23.167,23.167,0,0,0-1.459-3.242,5.8,5.8,0,0,1,.038-4.187c.285-.7.709-1.338,1-2.04.437-1.07.55-2.281,1.084-3.3a3.958,3.958,0,0,1,4.735-1.916c.825.3,1.541.9,2.381,1.163a7.947,7.947,0,0,0,3.486-.071,4.363,4.363,0,0,1,3.383.578c1.076.869,1.369,2.5,2.381,3.455.424.4.951.657,1.4,1.014a1.818,1.818,0,0,1,.771,1.521c-.067.776-.838,1.48-.552,2.2a1.775,1.775,0,0,0,.421.55,7.818,7.818,0,0,1,1.839,3.087c-2.032.629-4.234-1.584-5.826-2.631C914.031,230.851,911.5,230.177,910.666,231.508Z" transform="translate(-864.539 -194.289)" fill="#7c5c5c"/>
        <path id="Path_493" data-name="Path 493" d="M994.32,478.047l.948.76c.835-1.369,4.259-4.106,4.259-4.106l-.149-.142c-.316-.079-.5-.119-.5-.119Z" transform="translate(-967.897 -383.907)" opacity="0.1"/>
        <path id="Path_494" data-name="Path 494" d="M995.21,473.142s.342.836.691,1.556.735,1.379.753.844c.039-1.049,4.447-4.575,4.447-4.575l-.6-.573-.691-.664Z" transform="translate(-969.699 -380.391)" fill="#e7effd"/>
        <path id="Path_495" data-name="Path 495" d="M995.851,448.315l-.5,8.365c1.182-1.812,4.424-6.456,6.507-6.307l-5.048-5.731a6.82,6.82,0,0,1-.581-.733C996.039,446.3,995.851,448.315,995.851,448.315Z" transform="translate(-970.492 -361.116)" opacity="0.1"/>
        <path id="Path_496" data-name="Path 496" d="M997.54,473.127s.342.837.691,1.556c1.326-1.792,3.147-3.909,4.6-4.309l-.691-.664Z" transform="translate(-972.029 -380.376)" opacity="0.1"/>
        <path id="Path_497" data-name="Path 497" d="M1007,363.51l-1.369,1.049s-2.279.038-2.507,1.914a3.92,3.92,0,0,1-2.312,2.738s-1.557,1.536-1.557,2.248-1.179,1.987-1.179,2.1-1.141,2.4-.986,2.811-1.218,2.213-.8,2.887a16.538,16.538,0,0,1,.912,1.876s1.785,3.376,2.7,4.013,5.094,6,5.094,6,4.483,5.1,4.483,6.674c0,0,4.367-7.2,6.957-7.011l-5.056-5.739s-.873-.935-.912-1.5-2.433-3.151-3.573-3.262c0,0-.188-1.539.306-1.577s.912-1.237.912-1.237,3.34-3.9,3.383-6.375S1007,363.51,1007,363.51Z" transform="translate(-985.289 -301.095)" fill="#65617d"/>
        <path id="Path_498" data-name="Path 498" d="M1030.636,377.56s3.19,2.327,2.507,3.075S1030.636,377.56,1030.636,377.56Z" transform="translate(-1010.939 -311.584)" opacity="0.1"/>
        <path id="Path_499" data-name="Path 499" d="M1047.9,412.985s-5.929-1.876-6.538,0Z" transform="translate(-1028.353 -337.407)" opacity="0.1"/>
        <path id="Path_500" data-name="Path 500" d="M816.111,806.987s3.193,2.063,4.789,1.774a5.915,5.915,0,0,1,3.232.527,9.642,9.642,0,0,0,4.031,2.588,14.928,14.928,0,0,0,8.244-.152c.971-.319,1.051-.73.583-1.24-2.232.439-7.219,1.313-8.562.677a35.806,35.806,0,0,1-4.257-2.626s-3.27-.448-3.725-.448a41.8,41.8,0,0,1-4.275-1.617Z" transform="translate(-759.855 -631.775)" opacity="0.1"/>
        <path id="Path_501" data-name="Path 501" d="M937.81,825.15l.033.208s.771,1.65,4.976,2.251,4.218-1.389,4.218-1.389-.015-.213-.041-.535C945.661,826.184,942.747,826.742,937.81,825.15Z" transform="translate(-900.89 -645.72)" opacity="0.1"/>
        <path id="Path_502" data-name="Path 502" d="M874.861,375.79s0,8.55.742,9.394S874.861,375.79,874.861,375.79Z" transform="translate(-813.492 -310.263)" opacity="0.1"/>
        <path id="Path_503" data-name="Path 503" d="M1013.08,386.66l-1.1,3.057S1011.538,386.716,1013.08,386.66Z" transform="translate(-985.971 -318.377)" opacity="0.1"/>
        <g id="Group_36" data-name="Group 36" transform="translate(33.626 33.356)" opacity="0.1">
          <path id="Path_504" data-name="Path 504" d="M904.768,251.019c-.277-.7.452-1.394.547-2.149a1.39,1.39,0,0,1,.121.679,13.411,13.411,0,0,1-.586,1.625A1,1,0,0,1,904.768,251.019Z" transform="translate(-884.413 -248.87)"/>
          <path id="Path_505" data-name="Path 505" d="M898.07,266.066c.272-1.181.193-2.433.47-3.617s1.133-2.421,2.3-2.441c.514,0,1.089.182,1.451-.188.221-.223.257-.578.429-.849.832-1.331,3.365-.656,4.4.025,1.541,1.014,3.689,3.151,5.683,2.669.1.226.182.456.257.692-2.032.629-4.234-1.584-5.826-2.631-1.028-.679-3.571-1.354-4.4-.023-.164.271-.208.624-.426.847-.362.373-.951.18-1.451.19-1.166.02-2.017,1.237-2.3,2.441s-.19,2.479-.48,3.68A2.042,2.042,0,0,0,898.07,266.066Z" transform="translate(-890.329 -255.84)"/>
          <path id="Path_506" data-name="Path 506" d="M956.544,281.735c.206.593.748,1.141,1.333,1.014s.871-.778,1.308-1.191a1.817,1.817,0,0,1,2.055-.281,2.037,2.037,0,0,1,1.01,1.815,1.972,1.972,0,0,0-.9-1.085,1.8,1.8,0,0,0-2.055.284c-.439.411-.737,1.07-1.31,1.189s-1.125-.423-1.333-1.014a5.051,5.051,0,0,1-.208-1.077A2.776,2.776,0,0,0,956.544,281.735Z" transform="translate(-954.517 -272.914)"/>
          <path id="Path_507" data-name="Path 507" d="M979.749,261.084a23.61,23.61,0,0,1,1.459,3.242c.051.236.082.477.11.72a23.34,23.34,0,0,0-1.457-3.232,5.721,5.721,0,0,1-.352-1.554A5.656,5.656,0,0,0,979.749,261.084Z" transform="translate(-979.51 -257.373)"/>
        </g>
        <ellipse id="Ellipse_42" data-name="Ellipse 42" cx="0.092" cy="0.091" rx="0.092" ry="0.091" transform="translate(88.695 64.037)" fill="#e6e8ec"/>
        <ellipse id="Ellipse_43" data-name="Ellipse 43" cx="22.181" cy="2.233" rx="22.181" ry="2.233" transform="translate(33.791 177.534)" fill="#6c63ff" opacity="0.1"/>
        <path id="Path_508" data-name="Path 508" d="M383.685,244.353l67.181,43.005-43.842,78.021a3.055,3.055,0,0,1-1.952,1.47l-39.724,9.561a3.075,3.075,0,0,1-3.478-1.625l-19.7-40.392L320.57,305.91l51.246-59.821A9.167,9.167,0,0,1,383.685,244.353Z" transform="translate(-246.151 -211.068)" fill="#dcdfed"/>
        <path id="Path_509" data-name="Path 509" d="M323.22,307.229l.19.253,12.65,16.686.229.3,8.526,11.247,16.853,34.552.473.966,2.379,4.874A3.075,3.075,0,0,0,368,377.734l39.724-9.566a3.05,3.05,0,0,0,1.952-1.47l3.82-6.786.686-1.222L441.758,309.6l.236-.418,11.524-20.506-1.392-.892L441.57,281.03l-.244-.157L419.1,266.642l-1.4-.9L386.34,245.672a9.164,9.164,0,0,0-11.874,1.734l-23.378,27.3-1.028,1.217-16.968,19.807-.092.109-8.531,9.957-1.074,1.255Z" transform="translate(-249.484 -212.05)" opacity="0.1"/>
        <path id="Path_510" data-name="Path 510" d="M363.83,357.873l2.071,14.195.624,4.284.357,9.125.028.712,1.857,47.679a3.011,3.011,0,0,0,1.193,2.276,3.1,3.1,0,0,0,2.535.556l20.023-4.411.216-.048,51.351-11.308.943-.208,28.231-6.22-.647-42.868-.021-1.432-.2-12.976-.216-14.322-22.229-14.23-1.4-.9c-20.619,2.086-48.04,6.1-66.616,8.96l-1.028,1.217-16.955,19.807Z" transform="translate(-279.656 -274.422)" opacity="0.1"/>
        <path id="Path_511" data-name="Path 511" d="M362.83,339.923l2.438,16.73,2.235,15.32.624,4.274.357,9.125,1.886,48.391a3.011,3.011,0,0,0,1.193,2.276,3.1,3.1,0,0,0,2.535.556l20.238-4.459,51.351-11.308,29.173-6.428-.668-44.3-.2-12.976-.229-15.178-.234-15.612c-4.825-.226-12.763.284-22.24,1.224-21.22,2.1-50.146,6.352-69.059,9.28C370.655,338.63,362.83,339.923,362.83,339.923Z" transform="translate(-281.002 -273.303)" fill="#819eff"/>
        <path id="Path_512" data-name="Path 512" d="M321.649,432.74l10.859,5.255,55.421,26.818L439,423.163l10.325-8.433,1.392.892L439.2,436.129l.668,44.3-29.173,6.428-3.812,6.786a3.049,3.049,0,0,1-1.952,1.47L365.2,504.674a3.075,3.075,0,0,1-3.476-1.625l-2.379-4.874-20.238,4.459a3.1,3.1,0,0,1-2.535-.556,3.012,3.012,0,0,1-1.193-2.276l-1.886-48.391-12.878-16.983L320.58,434Z" transform="translate(-246.007 -339.332)" opacity="0.1"/>
        <path id="Path_513" data-name="Path 513" d="M433.013,418.25l4.581,77.394a3.028,3.028,0,0,1-2.392,3.125L313.556,525.423a3.1,3.1,0,0,1-2.476-.522,3.012,3.012,0,0,1-1.231-2.183L302.72,436.8l67.5,32.666Z" transform="translate(-228.298 -341.96)" fill="#dcdfed"/>
        <path id="Path_514" data-name="Path 514" d="M430.879,615.316l-63.2-38.47a4.684,4.684,0,0,0-5.909.912L305.21,642.848c-.205.233-.306.066,0,0l125.67-27.533C431.239,615.237,431.193,615.5,430.879,615.316Z" transform="translate(-222.421 -459.859)" opacity="0.1"/>
        <path id="Path_515" data-name="Path 515" d="M431.483,618.476,368.938,581.2a4.951,4.951,0,0,0-6.237.968L306.648,645.77a.66.66,0,0,0-.07.777.679.679,0,0,0,.725.311L431.28,619.7a.668.668,0,0,0,.522-.542A.661.661,0,0,0,431.483,618.476Z" transform="translate(-223.477 -463.083)" fill="#e3e5f1"/>
      </g>
    </g>
  </g>
</svg>
