<svg xmlns="http://www.w3.org/2000/svg" xmlns:xlink="http://www.w3.org/1999/xlink" width="377.515" height="239.656" viewBox="0 0 377.515 239.656">
  <defs>
    <clipPath id="clip-path">
      <path id="Rectangle_149" data-name="Rectangle 149" d="M20,0H357.515a20,20,0,0,1,20,20V234.137a0,0,0,0,1,0,0H0a0,0,0,0,1,0,0V20A20,20,0,0,1,20,0Z" transform="translate(221)" fill="#fff47a" opacity="0.4"/>
    </clipPath>
    <clipPath id="clip-path-2">
      <path id="Rectangle_132" data-name="Rectangle 132" d="M20,0H332.885a20,20,0,0,1,20,20V215.866a0,0,0,0,1,0,0H0a0,0,0,0,1,0,0V20A20,20,0,0,1,20,0Z" transform="translate(102)" fill="#fff47a" opacity="0.4"/>
    </clipPath>
    <linearGradient id="linear-gradient" x1="0.5" y1="1" x2="0.5" y2="-0.001" gradientUnits="objectBoundingBox">
      <stop offset="0" stop-color="gray" stop-opacity="0.251"/>
      <stop offset="0.54" stop-color="gray" stop-opacity="0.122"/>
      <stop offset="1" stop-color="gray" stop-opacity="0.102"/>
    </linearGradient>
  </defs>
  <g id="Group_89" data-name="Group 89" transform="translate(-253 -494.588)">
    <g id="Mask_Group_23" data-name="Mask Group 23" transform="translate(32 494.588)" clip-path="url(#clip-path)">
      <path id="blob_7_" data-name="blob (7)" d="M248.6-7.856c40.06,30.92,75.184,89.6,64.444,135.353-10.45,46.064-67.056,79.192-120.469,99.7s-103.923,28.4-154.143,11.358S-61.716,179.871-62.586,136.647C-63.748,93.738-15.85,49.567,22.758,19.278,61.076-11.011,90.1-27.417,126.971-34.358S208.832-38.46,248.6-7.856Z" transform="translate(283.423 11.676)" fill="#656565" opacity="0.16"/>
    </g>
    <g id="Mask_Group_17" data-name="Mask Group 17" transform="translate(169.968 518.378)" clip-path="url(#clip-path-2)">
      <g id="Group_60" data-name="Group 60" transform="translate(101.892 11.481)">
        <circle id="Ellipse_113" data-name="Ellipse 113" cx="52.872" cy="52.872" r="52.872" transform="translate(246.996 0)" fill="#3f3d56"/>
        <path id="Path_1029" data-name="Path 1029" d="M832.965,392.983a40.071,40.071,0,0,0-8.463-5.654c-2.533-1.217-3.464-1.2-5.258.1-1.492,1.058-2.46,2.079-4.173,1.7s-5.109-2.936-8.394-6.21-5.834-6.649-6.2-8.389.64-2.687,1.708-4.179c1.291-1.793,1.328-2.724.1-5.258a40.563,40.563,0,0,0-5.66-8.463c-1.857-1.851-2.258-1.444-3.274-1.058a18.922,18.922,0,0,0-3,1.587,9.046,9.046,0,0,0-3.6,3.8c-.724,1.544-1.544,4.411,2.671,11.917a66.49,66.49,0,0,0,11.689,15.588h0a66.593,66.593,0,0,0,15.641,11.711c7.5,4.231,10.373,3.391,11.917,2.671a8.877,8.877,0,0,0,3.8-3.6,18.681,18.681,0,0,0,1.587-3C834.409,395.242,834.821,394.829,832.965,392.983Z" transform="translate(-510.4 -326.475)" fill="#819eff"/>
        <path id="Path_1030" data-name="Path 1030" d="M784.6,300.86a52.893,52.893,0,1,0,52.867,52.876A52.893,52.893,0,0,0,784.6,300.86Zm0,98.71a45.843,45.843,0,1,1,45.843-45.843A45.842,45.842,0,0,1,784.6,399.57Z" transform="translate(-484.731 -300.855)" opacity="0.1"/>
        <circle id="Ellipse_114" data-name="Ellipse 114" cx="52.872" cy="52.872" r="52.872" transform="translate(125.527 80.308)" fill="#3f3d56"/>
        <path id="Path_1031" data-name="Path 1031" d="M604.9,522.34l-15.831,16.106a.286.286,0,0,0,0,.413L600.18,550.67a1.911,1.911,0,1,1-2.7,2.7L586.428,541.6a.3.3,0,0,0-.423,0l-2.692,2.719a11.832,11.832,0,0,1-8.463,3.56,12.091,12.091,0,0,1-8.611-3.66l-2.586-2.645a.3.3,0,0,0-.423,0L552.206,553.32a1.911,1.911,0,1,1-2.7-2.7l11.065-11.785a.317.317,0,0,0,0-.413l-15.831-16.106a.291.291,0,0,0-.5.206v32.228a4.718,4.718,0,0,0,4.7,4.7h51.767a4.718,4.718,0,0,0,4.7-4.7v-32.2a.291.291,0,0,0-.508-.206Z" transform="translate(-396.435 -405.134)" fill="#819eff"/>
        <path id="Path_1032" data-name="Path 1032" d="M576.44,539.537a8.008,8.008,0,0,0,5.776-2.38l23.056-23.469a4.6,4.6,0,0,0-2.909-1.058h-51.8a4.571,4.571,0,0,0-2.909,1.058l23.062,23.469A7.976,7.976,0,0,0,576.44,539.537Z" transform="translate(-398.041 -400.612)" fill="#819eff"/>
        <path id="Path_1033" data-name="Path 1033" d="M553.69,452.69a52.893,52.893,0,1,0,52.867,52.876A52.894,52.894,0,0,0,553.69,452.69Zm0,98.71a45.843,45.843,0,1,1,45.843-45.843A45.843,45.843,0,0,1,553.69,551.4Z" transform="translate(-375.957 -372.377)" opacity="0.1"/>
        <circle id="Ellipse_115" data-name="Ellipse 115" cx="52.872" cy="52.872" r="52.872" transform="translate(0.048 40.823)" fill="#3f3d56"/>
        <path id="Path_1034" data-name="Path 1034" d="M346.078,430.16,325,478.79l1.968,1.968,19.116-8.431,19.116,8.431,1.968-1.968Z" transform="translate(-293.158 -361.763)" fill="#819eff"/>
        <path id="Path_1035" data-name="Path 1035" d="M317.72,378a52.862,52.862,0,1,0,.009,0Zm0,98.709a37.792,37.792,0,1,1,.005.021Z" transform="translate(-264.8 -337.193)" opacity="0.1"/>
        <path id="Path_1051" data-name="Path 1051" d="M835.57,728.98c0,.418-.831,1.455-.831,1.455a10.294,10.294,0,0,1-4.988-.624c-.418-.206.206-1.455.206-1.455l.048-.1a10.054,10.054,0,0,0,4.528.931l.947-.947C835.533,728.594,835.57,728.874,835.57,728.98Z" transform="translate(-530.862 -502.179)" opacity="0.1"/>
        <path id="Path_1082" data-name="Path 1082" d="M466.841,574.682a5.187,5.187,0,0,0-2.068-4.189,6.083,6.083,0,0,0-5.083-5.967A6.073,6.073,0,0,0,455.644,560h0a5.188,5.188,0,0,0-.751-.174H454a5.956,5.956,0,0,0-5.755,5.088c-1.857-.428-3.554.127-3.867,1.3a1.586,1.586,0,0,0,.053.942,4.093,4.093,0,0,0,2.729,2.211l.18.053.27.069h.058a4.678,4.678,0,0,0-.444,2,4.623,4.623,0,0,0,2.491,4.126l-.122.074a1.654,1.654,0,0,0-.4.561,8.4,8.4,0,0,0-.778,1.873c-.132.561-.153,1.142-.317,1.7-.307,1.021-1.09,1.883-1.18,2.946-.042.476.037,1.058-.3,1.365a1.627,1.627,0,0,1-.27.19,2.186,2.186,0,0,0-.587.619,2.053,2.053,0,0,1-.413.592c-.307.228-.809.206-.957.561s.238.772.148,1.158-.418.461-.656.677a2.354,2.354,0,0,0-.566,1.058,3.471,3.471,0,0,1-2.856-.73,5.356,5.356,0,0,1,.3,1.058,4.632,4.632,0,0,0-1.539-.772,4.862,4.862,0,0,1-1.64-1.217l.878-.122-3.877-5.919-1.148-.238,1.026,1.973a.628.628,0,0,0-.349.418,1.786,1.786,0,0,0-.037.672,12.017,12.017,0,0,0,.264,1.587l.3,1.386c.026.127.058.259.1.386a3.645,3.645,0,0,0-1.148.127,9.986,9.986,0,0,0-2.386-.566,1.321,1.321,0,0,0-.529,0,1.373,1.373,0,0,0-.5.407,16.278,16.278,0,0,0-1.772,2.5,87.164,87.164,0,0,1-7.479,10.076c-1.8.73-3.613,1.423-5.427,2.116l-3.9,1.491a5.914,5.914,0,0,1-2.422.529c-.37,0-.831-.079-1.058.238a2.232,2.232,0,0,0-.238.529l-.4.042h0a4.622,4.622,0,0,0-.936-1.724.593.593,0,0,0-.439.339c-.1.175-.153.365-.264.529-.206.307-.571.455-.831.714s-.423.661-.709.926a2.8,2.8,0,0,1-1.328.529,8.371,8.371,0,0,0-2.079.788,3.35,3.35,0,0,1-.767.354,2.885,2.885,0,0,1-.9.032l-2.063-.153a1.628,1.628,0,0,0-.555.026,1.057,1.057,0,0,0-.656,1.058,1.666,1.666,0,0,0,.656,1.137,4.2,4.2,0,0,0,1.174.608,34.46,34.46,0,0,0,5.5,1.629v.418a9.39,9.39,0,0,0,4.232,1,.656.656,0,0,0,.318-.058.7.7,0,0,0,.264-.413,17.008,17.008,0,0,0,.825-4.052h0a2.116,2.116,0,0,0,.746-.19c.709-.2,1.418.291,2.153.37a5.882,5.882,0,0,0,2.6-.751l.37-.122a4.067,4.067,0,0,1-.857.82c-.354.254-.751.444-1.095.708a7.53,7.53,0,0,1-.931.72,5.851,5.851,0,0,1-.714.275,4.707,4.707,0,0,0-1.021.529,2.07,2.07,0,0,0-.693.677,1.016,1.016,0,0,0-.058.952,1,1,0,0,0,.682.476,2.812,2.812,0,0,0,.841,0c1.121-.085,2.237-.185,3.353-.286a8.941,8.941,0,0,0,1.4-.2c.243-.058.487-.138.73-.206a6.478,6.478,0,0,1,1.275-.19,1.056,1.056,0,0,1,.37.037c.259.084.444.349.709.4a1.052,1.052,0,0,0,.529-.068,11.776,11.776,0,0,1,2.481-.264,1.024,1.024,0,0,0,.963-.429c.169-.338-.137-.883-.275-1.333a4.068,4.068,0,0,1-.116-.878,5.5,5.5,0,0,0-.614-2.084,5.458,5.458,0,0,1-.46-.952,24.067,24.067,0,0,0,4.565-2.317,8.162,8.162,0,0,1,2.6-1.254,7.076,7.076,0,0,1,3.269.381,74.266,74.266,0,0,1,7.495,2.613c1.169.481,2.333.989,3.539,1.354a5.515,5.515,0,0,0,1.259,1.222,5.817,5.817,0,0,0,2.724.746,35.746,35.746,0,0,0,3.835.143,6.467,6.467,0,0,0,2.856-.529,2.931,2.931,0,0,0,.6-.4,2.371,2.371,0,0,0,1.883-.693,4.565,4.565,0,0,0,1.433-2.264c.312-1.206.074-2.645.815-3.607.2-.264.455-.476.651-.74a2.085,2.085,0,0,0,.339-1.222.24.24,0,0,1,.032-.048,4.478,4.478,0,0,0,.317-1.217,6.96,6.96,0,0,1,.344-.963,29.768,29.768,0,0,0,.984-2.851,16.709,16.709,0,0,0,.455-1.957c.079-.529.127-1.058.169-1.587a9.856,9.856,0,0,1,.481-2.449,19.93,19.93,0,0,0,1.111-5.861v-.116a3.929,3.929,0,0,0,3.48-4,4.17,4.17,0,0,0-.365-1.708,5.291,5.291,0,0,0,.709-2.666Zm-18.925,22.993c.058.206.127.407.2.608-.312-.3-.613-.613-.926-.92.122.042.249.079.365.127a1.977,1.977,0,0,1,.349.185Zm-1.5-1.016c-1.83-1.587-3.946-2.819-5.818-4.358,1.021.5,2.015,1.09,3,1.65q1.751,1,3.549,1.92a2.9,2.9,0,0,1-.746.788Zm.778-4,.09-.09v.63l-.492-.169a4.414,4.414,0,0,0,.386-.37Zm-16.1,4.284a15.14,15.14,0,0,0,1.947-2.777,18.688,18.688,0,0,0,2.9,3.242C434.339,597.2,432.72,597.03,431.1,596.945Z" transform="translate(-326.568 -422.847)" fill="url(#linear-gradient)"/>
        <path id="Path_1083" data-name="Path 1083" d="M415.35,438.25l1.153.233,3.93,5.813-1.73.233Z" transform="translate(-308.215 -279.554)" fill="#2f2e41"/>
        <path id="Path_1084" data-name="Path 1084" d="M414.49,645.409a22.631,22.631,0,0,0,1.153,3,28.587,28.587,0,0,0,3.835-1.095,12.151,12.151,0,0,0-.8-1.058,3.948,3.948,0,0,0-1.085-.831,2.98,2.98,0,0,0-1.317,0C415.685,645.409,415.088,645.419,414.49,645.409Z" transform="translate(-335.314 -463.133)" fill="#fbbebe"/>
        <path id="Path_1085" data-name="Path 1085" d="M408.8,645.474a2.392,2.392,0,0,1-1.312-1.492,4.8,4.8,0,0,0-1-1.782.571.571,0,0,0-.444.333c-.1.169-.153.36-.259.529-.212.3-.582.449-.846.7s-.423.65-.709.909a2.81,2.81,0,0,1-1.338.529,8.688,8.688,0,0,0-2.116.777,3.649,3.649,0,0,1-.778.349,3.088,3.088,0,0,1-.91,0L397,646.183a1.619,1.619,0,0,0-.529,0,1.011,1.011,0,0,0-.661,1.058,1.588,1.588,0,0,0,.661,1.122,4.381,4.381,0,0,0,1.185.6,34.883,34.883,0,0,0,5.586,1.587v.412a9.667,9.667,0,0,0,4.258.989.722.722,0,0,0,.318-.053.7.7,0,0,0,.264-.413,16.5,16.5,0,0,0,.873-4.527,3.608,3.608,0,0,0-.09-1.169c-.116-.375.275-.217-.085-.365" transform="translate(-326.514 -461.649)" fill="#2f2e41"/>
        <path id="Path_1086" data-name="Path 1086" d="M459.4,632.072c-6.178.37-12.282-1.439-18.47-1.629a9.019,9.019,0,0,0-2.3.143,11.592,11.592,0,0,0-2.275.883c-3.316,1.545-6.749,2.824-10.177,4.1l-3.941,1.465a5.965,5.965,0,0,1-2.438.529c-.376,0-.836-.079-1.058.233-.64.952-.338,2.343.085,3.411.137.344.37.719.741.756a2.156,2.156,0,0,0,.751-.191c.714-.19,1.428.291,2.169.37a6.1,6.1,0,0,0,2.618-.741,22.726,22.726,0,0,1,4.485-.762,20.094,20.094,0,0,0,7.024-2.914,8.193,8.193,0,0,1,2.618-1.238,7.243,7.243,0,0,1,3.3.375,75.537,75.537,0,0,1,7.558,2.571,35.27,35.27,0,0,0,3.946,1.444,14.28,14.28,0,0,0,8.849-.529c.989-.391,2.063-1.058,2.116-2.147.037-.608-.439-1.142-.751-1.666-.2-.333-.407-.666-.624-.989C462.564,634.013,461.273,631.961,459.4,632.072Z" transform="translate(-337.143 -456.101)" fill="#2f2e41"/>
        <path id="Path_1087" data-name="Path 1087" d="M459.4,632.072c-6.178.37-12.282-1.439-18.47-1.629a9.019,9.019,0,0,0-2.3.143,11.592,11.592,0,0,0-2.275.883c-3.316,1.545-6.749,2.824-10.177,4.1l-3.941,1.465a5.965,5.965,0,0,1-2.438.529c-.376,0-.836-.079-1.058.233-.64.952-.338,2.343.085,3.411.137.344.37.719.741.756a2.156,2.156,0,0,0,.751-.191c.714-.19,1.428.291,2.169.37a6.1,6.1,0,0,0,2.618-.741,22.726,22.726,0,0,1,4.485-.762,20.094,20.094,0,0,0,7.024-2.914,8.193,8.193,0,0,1,2.618-1.238,7.243,7.243,0,0,1,3.3.375,75.537,75.537,0,0,1,7.558,2.571,35.27,35.27,0,0,0,3.946,1.444,14.28,14.28,0,0,0,8.849-.529c.989-.391,2.063-1.058,2.116-2.147.037-.608-.439-1.142-.751-1.666-.2-.333-.407-.666-.624-.989C462.564,634.013,461.273,631.961,459.4,632.072Z" transform="translate(-337.143 -456.101)" opacity="0.1"/>
        <path id="Path_1088" data-name="Path 1088" d="M436.92,643.709q1.449.492,2.925.91c.529-.9,1.587-1.534,1.814-2.571a.241.241,0,0,0,0-.138.258.258,0,0,0-.111-.1,5.551,5.551,0,0,0-2.3-.672c-.635-.037-.926.624-1.211,1.09C437.93,642.435,437.179,643.81,436.92,643.709Z" transform="translate(-345.88 -461.148)" fill="#fbbebe"/>
        <path id="Path_1089" data-name="Path 1089" d="M430.972,643.473a2.116,2.116,0,0,1-1.423-.936c-.132-.238-.28-.561-.555-.529s-.365.317-.423.566a15.85,15.85,0,0,1-.8,2.745,5.151,5.151,0,0,1-1.708,2.248c-.36.249-.756.434-1.111.7a7.633,7.633,0,0,1-.936.709,5.538,5.538,0,0,1-.719.265,4.957,4.957,0,0,0-1.026.529,2.032,2.032,0,0,0-.7.672.967.967,0,0,0-.053.936,1,1,0,0,0,.682.465,2.861,2.861,0,0,0,.852,0c1.127-.079,2.253-.18,3.38-.28a9.811,9.811,0,0,0,1.412-.2l.735-.2a5.857,5.857,0,0,1,1.285-.19,1,1,0,0,1,.375.037c.259.085.444.344.714.4a1.192,1.192,0,0,0,.529-.069,11.673,11.673,0,0,1,2.5-.259,1.056,1.056,0,0,0,.973-.423c.212-.412-.138-.873-.28-1.317a4.231,4.231,0,0,1-.116-.862,5.256,5.256,0,0,0-.619-2.052c-.286-.529-.677-1.111-.476-1.671a1.591,1.591,0,0,0,.19-.577C433.574,643.267,431.49,643.589,430.972,643.473Z" transform="translate(-338.578 -461.557)" fill="#2f2e41"/>
        <path id="Path_1090" data-name="Path 1090" d="M473.784,609.962a4.824,4.824,0,0,1-2.465-2.444c-.1-.233-.185-.482-.286-.714a5.43,5.43,0,0,0-1.47-2.047.725.725,0,0,0-.529-.227.576.576,0,0,0-.4.428,1.635,1.635,0,0,0-.042.661,11.769,11.769,0,0,0,.265,1.545l.3,1.364a2.981,2.981,0,0,0,.185.608,2.115,2.115,0,0,0,.5.6c.275.254.555.5.836.74a2.866,2.866,0,0,0,.529.365,3.071,3.071,0,0,0,.936.275,7.968,7.968,0,0,1,3.512,1.354v-1.016a1.345,1.345,0,0,0-.265-.735A4.689,4.689,0,0,0,473.784,609.962Z" transform="translate(-360.794 -443.903)" fill="#fbbebe"/>
        <path id="Path_1091" data-name="Path 1091" d="M473.784,609.962a4.824,4.824,0,0,1-2.465-2.444c-.1-.233-.185-.482-.286-.714a5.43,5.43,0,0,0-1.47-2.047.725.725,0,0,0-.529-.227.576.576,0,0,0-.4.428,1.635,1.635,0,0,0-.042.661,11.769,11.769,0,0,0,.265,1.545l.3,1.364a2.981,2.981,0,0,0,.185.608,2.115,2.115,0,0,0,.5.6c.275.254.555.5.836.74a2.866,2.866,0,0,0,.529.365,3.071,3.071,0,0,0,.936.275,7.968,7.968,0,0,1,3.512,1.354v-1.016a1.345,1.345,0,0,0-.265-.735A4.689,4.689,0,0,0,473.784,609.962Z" transform="translate(-360.794 -443.903)" opacity="0.1"/>
        <ellipse id="Ellipse_118" data-name="Ellipse 118" cx="1.502" cy="1.513" rx="1.502" ry="1.513" transform="translate(124.067 152.592)" fill="#2f2e41"/>
        <path id="Path_1092" data-name="Path 1092" d="M491.183,590.44a1.625,1.625,0,0,0-1.185.169,1.647,1.647,0,0,0-.407.556,8.061,8.061,0,0,0-.783,1.841c-.132.529-.153,1.126-.323,1.671-.307,1.005-1.095,1.856-1.185,2.9-.042.471.037,1.021-.307,1.338a1.935,1.935,0,0,1-.27.2,2.03,2.03,0,0,0-.592.608,2,2,0,0,1-.418.577c-.307.227-.815.206-.963.529s.238.762.148,1.143-.423.455-.661.667a2.31,2.31,0,0,0-.571,1.058,3.528,3.528,0,0,1-2.877-.714,9.166,9.166,0,0,1,.45,3.29,1.343,1.343,0,0,1-.265,1.016,18.344,18.344,0,0,1,3.528.614,2.431,2.431,0,0,0,1.539,0,2.564,2.564,0,0,0,.709-.561,4.518,4.518,0,0,0,1.455-2.243,13.2,13.2,0,0,0,.026-1.518,8.559,8.559,0,0,1,.386-1.846,21.982,21.982,0,0,0,.672-3.8c.069-.793.756-1.428,1.116-2.116a10.357,10.357,0,0,0,1.423-4.232C491.85,591.1,491.681,590.493,491.183,590.44Z" transform="translate(-366.546 -437.245)" fill="#2f2e41"/>
        <path id="Path_1093" data-name="Path 1093" d="M491.183,590.44a1.625,1.625,0,0,0-1.185.169,1.647,1.647,0,0,0-.407.556,8.061,8.061,0,0,0-.783,1.841c-.132.529-.153,1.126-.323,1.671-.307,1.005-1.095,1.856-1.185,2.9-.042.471.037,1.021-.307,1.338a1.935,1.935,0,0,1-.27.2,2.03,2.03,0,0,0-.592.608,2,2,0,0,1-.418.577c-.307.227-.815.206-.963.529s.238.762.148,1.143-.423.455-.661.667a2.31,2.31,0,0,0-.571,1.058,3.528,3.528,0,0,1-2.877-.714,9.166,9.166,0,0,1,.45,3.29,1.343,1.343,0,0,1-.265,1.016,18.344,18.344,0,0,1,3.528.614,2.431,2.431,0,0,0,1.539,0,2.564,2.564,0,0,0,.709-.561,4.518,4.518,0,0,0,1.455-2.243,13.2,13.2,0,0,0,.026-1.518,8.559,8.559,0,0,1,.386-1.846,21.982,21.982,0,0,0,.672-3.8c.069-.793.756-1.428,1.116-2.116a10.357,10.357,0,0,0,1.423-4.232C491.85,591.1,491.681,590.493,491.183,590.44Z" transform="translate(-366.546 -437.245)" opacity="0.1"/>
        <path id="Path_1094" data-name="Path 1094" d="M470.305,624.668a13.934,13.934,0,0,1-3.269-2.729c-1.984-1.867-4.411-3.174-6.5-4.935a45.776,45.776,0,0,0-4.141-3.48,10.348,10.348,0,0,0-4.438-1.55,1.179,1.179,0,0,0-.529,0,1.215,1.215,0,0,0-.5.4,15.976,15.976,0,0,0-1.793,2.459c-2.645,4.5-6.405,8.273-9.521,12.451a.794.794,0,0,0-.153.3.736.736,0,0,0,.116.46l.635,1.237c.354.7.925,1.508,1.687,1.37a1.847,1.847,0,0,0,.883-.566l2.846-2.724,2.983-2.851a22.874,22.874,0,0,0,4.665-5.511c.889,1.545,2.47,2.555,3.549,3.967.413.529.751,1.127,1.121,1.7.587.91,1.259,1.766,1.925,2.644l3.422,4.364a6.552,6.552,0,0,0,1.587,1.587,6.057,6.057,0,0,0,2.745.735,36.188,36.188,0,0,0,3.866.138,6.67,6.67,0,0,0,2.883-.529,2.614,2.614,0,0,0,1.56-2.322,3.406,3.406,0,0,0-.492-1.444A11.789,11.789,0,0,0,470.305,624.668Z" transform="translate(-347.074 -447.395)" fill="#2f2e41"/>
        <ellipse id="Ellipse_119" data-name="Ellipse 119" cx="1.158" cy="1.164" rx="1.158" ry="1.164" transform="translate(125.336 153.988)" fill="#e8e8f0"/>
        <path id="Path_1095" data-name="Path 1095" d="M502.057,589.294a2.226,2.226,0,0,1,.127,1.671,6.783,6.783,0,0,1-.746,1.539,7.314,7.314,0,0,1-.968,1.375,9.96,9.96,0,0,0,5.088-1.46,7.389,7.389,0,0,0,3.211-2.8,1.481,1.481,0,0,1-1.185-.222,4.236,4.236,0,0,1-.9-.841l-.894-1.005a4.015,4.015,0,0,1-.529-.724,2,2,0,0,1-.238-1.169,6.8,6.8,0,0,1-1.185.984c-.64.418-1.343.72-1.989,1.132-.222.148-.73.381-.6.677S501.877,588.976,502.057,589.294Z" transform="translate(-375.816 -435.014)" fill="#fbbebe"/>
        <path id="Path_1096" data-name="Path 1096" d="M502.057,589.294a2.226,2.226,0,0,1,.127,1.671,6.783,6.783,0,0,1-.746,1.539,7.314,7.314,0,0,1-.968,1.375,9.96,9.96,0,0,0,5.088-1.46,7.389,7.389,0,0,0,3.211-2.8,1.481,1.481,0,0,1-1.185-.222,4.236,4.236,0,0,1-.9-.841l-.894-1.005a4.015,4.015,0,0,1-.529-.724,2,2,0,0,1-.238-1.169,6.8,6.8,0,0,1-1.185.984c-.64.418-1.343.72-1.989,1.132-.222.148-.73.381-.6.677S501.877,588.976,502.057,589.294Z" transform="translate(-375.816 -435.014)" opacity="0.1"/>
        <path id="Path_1097" data-name="Path 1097" d="M497.24,592.693a1.507,1.507,0,0,0,0,1.746c.053.063.243.46.323.465a.291.291,0,0,0,.2-.105,13.292,13.292,0,0,0,1.132-1.349,2.516,2.516,0,0,1,1.439-.942,3.108,3.108,0,0,1,1.983.619,1.884,1.884,0,0,1,.683.529,1.849,1.849,0,0,1,.222.756,36.411,36.411,0,0,1,.2,4.808,18.914,18.914,0,0,1-.227,3.465c-.116.587-.285,1.163-.365,1.761a11.258,11.258,0,0,0-.074,1.587v2.211a5.805,5.805,0,0,0,.085,1.211c.106.481.333.931.487,1.4a9.164,9.164,0,0,1,.323,1.655l.3,2.285a2.888,2.888,0,0,1-.27,2.116c-.2.259-.455.471-.656.73-.746.973-.529,2.364-.82,3.554a4.431,4.431,0,0,1-1.449,2.221,2.4,2.4,0,0,1-1.909.682,2.617,2.617,0,0,1-1.74-2.058,8.227,8.227,0,0,0-.894-2.682,7.109,7.109,0,0,0-1.767-1.476,3.052,3.052,0,0,1-1.381-1.793c-.058-.333,0-.677-.058-1.016a2.4,2.4,0,0,0-1.476-1.941c-.476-.185-1.058-.254-1.333-.688a3.208,3.208,0,0,0,1.391-1.867,9.578,9.578,0,0,0,.339-2.359l.159-2.645a8.836,8.836,0,0,1,.629-3.433c.233-.476.529-.926.767-1.4a15.123,15.123,0,0,0,.82-2.047c.381-1.09.762-2.179,1.1-3.279a6.168,6.168,0,0,1,.6-1.529C496.293,593.4,496.706,592.8,497.24,592.693Z" transform="translate(-370.978 -438.239)" fill="#e8e8f0"/>
        <path id="Path_1098" data-name="Path 1098" d="M492.293,609.53h.7l.148-1.058a2.21,2.21,0,0,1,.148-.619,3.68,3.68,0,0,1,.407-.592c.688-.979.64-2.275.809-3.465a17.621,17.621,0,0,1,1.544-4.528l1.365-3.041a4.2,4.2,0,0,0,.3-.778,4.656,4.656,0,0,0,.085-.9c0-.471.148-2.185.164-2.645,0-.175-.386-.08-.465-.233-.169-.338-.4.577-.725.778a1.776,1.776,0,0,0-.629.92c-.3.762-.476,1.587-.751,2.343a4.786,4.786,0,0,1-1.275,2.074c-.28.243-.6.439-.867.7a4.747,4.747,0,0,0-.957,3.359C492.272,602.58,492.134,609.53,492.293,609.53Z" transform="translate(-371.929 -437.812)" fill="#2f2e41"/>
        <path id="Path_1099" data-name="Path 1099" d="M505.786,590.406a2.4,2.4,0,0,0-1.254,1.719,8.7,8.7,0,0,1-.635,2.115c-.857,1.492-3.042,1.925-3.65,3.539a6.5,6.5,0,0,0-.243,1.666c-.106,1.158-.487,2.274-.6,3.427a15.287,15.287,0,0,0,.063,2.692l.767,9.109a12.167,12.167,0,0,1-.227,4.009,3.864,3.864,0,0,0,2.3-.381c.714-.328,1.37-.778,2.063-1.159a21.253,21.253,0,0,0,3.539-1.989,2.172,2.172,0,0,0,.476-.529,4.577,4.577,0,0,0,.317-1.2,6.479,6.479,0,0,1,.344-.942,27.73,27.73,0,0,0,.994-2.814,16.178,16.178,0,0,0,.455-1.925c.085-.529.132-1.058.174-1.587a9.307,9.307,0,0,1,.487-2.407,19.385,19.385,0,0,0,1.116-5.776,3.02,3.02,0,0,0-.058-.846,4.516,4.516,0,0,0-.465-.968c-.317-.6-.529-1.254-.8-1.862a9.158,9.158,0,0,0-3.126-3.285A2.38,2.38,0,0,0,505.786,590.406Z" transform="translate(-375.298 -437.216)" fill="#2f2e41"/>
        <path id="Path_1100" data-name="Path 1100" d="M473.914,615.835a5.507,5.507,0,0,1-1.455-1.105c-.19-.222-.349-.471-.529-.693a3.6,3.6,0,0,0-1.83-1.058,8.94,8.94,0,0,0-2.116-.206,3.844,3.844,0,0,0-1.412.169,1.439,1.439,0,0,0-.936,1.005,1.666,1.666,0,0,0,.714,1.481,3.36,3.36,0,0,0,1.423.688,11.368,11.368,0,0,0,1.285.154c2.528.265,4.787,1.64,7,2.893q2.92,1.661,5.956,3.089a12.357,12.357,0,0,0,.1-1.825c0-.455-.037-1.153-.465-1.423a9.366,9.366,0,0,0-1.894-.566,29.8,29.8,0,0,1-3.814-1.544A18.911,18.911,0,0,1,473.914,615.835Z" transform="translate(-359.406 -447.782)" fill="#fbbebe"/>
        <ellipse id="Ellipse_120" data-name="Ellipse 120" cx="4.507" cy="4.533" rx="4.507" ry="4.533" transform="translate(121.062 144.695)" fill="#fbbebe"/>
        <path id="Path_1101" data-name="Path 1101" d="M504.034,599.668a7.225,7.225,0,0,0-.873,1.634c-.529,1.143-1.428,2.116-1.867,3.327s-.444,2.766-1.349,3.756a1.316,1.316,0,0,0-.4.571,2.724,2.724,0,0,1-.042.412c-.132.36-.719.376-.83.746-.032.106,0,.222-.053.328-.09.238-.407.275-.614.418-.439.3-.349.984-.661,1.412a1.19,1.19,0,0,1-1.127.4,3.973,3.973,0,0,1-1.169-.439,1.127,1.127,0,0,0-.423-.132.871.871,0,0,0-.487.169,3,3,0,0,0-1.217,2.565,8.372,8.372,0,0,0,.7,2.872,1.156,1.156,0,0,0,.227.429,1.011,1.011,0,0,0,1.121.085,5.282,5.282,0,0,1,1.095-.492c.7-.127,1.38.354,2.089.312a2.9,2.9,0,0,0,1.407-.619,7.779,7.779,0,0,0,1.894-1.587c.307-.407.529-.867.8-1.3a16.694,16.694,0,0,1,1.137-1.518l2.6-3.174a7.3,7.3,0,0,0,.7-.962,6.792,6.792,0,0,0,.529-1.455,11.141,11.141,0,0,0,.529-2.586,9.93,9.93,0,0,0-.19-2.169,7.666,7.666,0,0,0-.529-2.068C506.473,599.4,505.1,598.43,504.034,599.668Z" transform="translate(-372.261 -441.342)" fill="#2f2e41"/>
        <path id="Path_1102" data-name="Path 1102" d="M510.843,575.9a5.078,5.078,0,0,0-2.084-4.126,6.035,6.035,0,0,0-5.125-5.876,5.855,5.855,0,0,0-11.536.312c-1.872-.423-3.586.127-3.9,1.28s1.01,2.645,2.983,3.173a5.558,5.558,0,0,0,1.915.19,5.861,5.861,0,0,0,4.031,2.512,6.014,6.014,0,0,0,4.4,4.538,5.052,5.052,0,0,0,1.359,1.878v.439a3.814,3.814,0,1,0,7.627,0,4.072,4.072,0,0,0-.365-1.687A5.1,5.1,0,0,0,510.843,575.9Z" transform="translate(-370.014 -423.49)" fill="#ff9598"/>
        <path id="Path_1103" data-name="Path 1103" d="M489.464,567.733c.312-1.153,2.026-1.7,3.9-1.28a5.955,5.955,0,0,1,5.818-5.014h.386a5.722,5.722,0,0,0-1.661-.249,5.955,5.955,0,0,0-5.818,5.014c-1.872-.423-3.586.127-3.9,1.28s1.01,2.645,2.983,3.174a5.84,5.84,0,0,0,1.132.2C490.416,570.288,489.152,568.912,489.464,567.733Z" transform="translate(-370.01 -423.487)" opacity="0.1"/>
        <path id="Path_1104" data-name="Path 1104" d="M508.642,589.224a4.013,4.013,0,0,1,0-.434,4.942,4.942,0,0,1-1.359-1.878,6,6,0,0,1-4.4-4.543,5.845,5.845,0,0,1-4.036-2.507,5.074,5.074,0,0,1-1.127-.032,5.875,5.875,0,0,0,3.888,2.311,6.014,6.014,0,0,0,4.4,4.539,5.053,5.053,0,0,0,1.359,1.878V589a3.882,3.882,0,0,0,3.792,3.946A3.946,3.946,0,0,1,508.642,589.224Z" transform="translate(-374.521 -432.268)" opacity="0.1"/>
        <ellipse id="Ellipse_121" data-name="Ellipse 121" cx="0.693" cy="0.926" rx="0.693" ry="0.926" transform="translate(125.965 149.837) rotate(-37.22)" fill="#fbbebe"/>
      </g>
    </g>
  </g>
</svg>
